<?xml version="1.0" encoding="utf-8"?>
<!-- Generator: Adobe Illustrator 22.0.1, SVG Export Plug-In . SVG Version: 6.00 Build 0)  -->
<svg version="1.1" id="Layer_1" xmlns="http://www.w3.org/2000/svg" xmlns:xlink="http://www.w3.org/1999/xlink" x="0px" y="0px"
	 viewBox="0 0 1020 1020" style="enable-background:new 0 0 1020 1020;" xml:space="preserve">
<style type="text/css">
	.st0{fill:none;}
	.st1{fill:#333333;}
	.st2{font-family:'BungeeHairline-Regular';}
	.st3{font-size:30px;}
	.st4{fill:none;stroke:#030303;stroke-width:1.0555;}
	.st5{fill:none;stroke:#121111;stroke-width:1.0555;}
	.st6{fill:none;stroke:#111010;stroke-width:1.0555;}
	.st7{fill:#030303;}
	.st8{fill:none;stroke:#111111;stroke-width:1.0555;}
	.st9{fill:none;stroke:#111010;stroke-width:0.5277;}
	.st10{fill:#D8D9D8;stroke:#070707;stroke-width:0.5277;}
	.st11{fill:none;stroke:#171616;stroke-width:1.0555;}
	.st12{fill:none;stroke:#0D0E0E;stroke-width:1.0555;}
	.st13{fill:#171617;}
	.st14{fill:none;stroke:#0B0B0B;stroke-width:1.0555;}
	.st15{fill:none;stroke:#131212;stroke-width:0.5277;}
	.st16{fill:none;stroke:#101010;stroke-width:0.5277;}
	.st17{fill:#1B1A1A;stroke:#979797;stroke-width:0.5277;}
	.st18{fill:#1B1A1A;}
	.st19{fill:none;stroke:#151313;stroke-width:1.0555;}
	.st20{fill:none;stroke:#121212;stroke-width:1.0555;}
	.st21{fill:#141414;}
	.st22{fill:none;stroke:#979797;stroke-width:0.5277;}
</style>
<g>
	<rect x="400.9" y="716.8" class="st0" width="251.1" height="97"/>
	<text transform="matrix(1 0 0 1 400.9478 735.7329)" class="st1 st2 st3">UX designer</text>
	<rect x="149.9" y="717" class="st0" width="241.1" height="71"/>
	<text transform="matrix(1 0 0 1 149.9478 735.8999)" class="st1 st2 st3">Researcher</text>
	<rect x="660.9" y="716.8" class="st0" width="200.1" height="97"/>
	<text transform="matrix(1 0 0 1 660.9482 735.7329)" class="st1 st2 st3">Filmmaker</text>
	<g id="Page-1">
		<g id="Group-3" transform="translate(2.000000, 151.000000)">
			<g id="Group-2">
				<g id="Group">
					<path id="Path" class="st4" d="M210,519.9c-13.8,30.8-2.5,6,0,6.8c6.6,2.2,6.9,22.8,5.1,0.7c-0.2-2.8,6.5,9.8,6.1,8.5
						c-7.6-26.2-6.1-40.5-6.1-83.2c0-21.3-0.8-81.3-1.4-78l7.5-7.9l9.5,7.9l11.3-7.9l9.2,7.9l2,77.5v83.7l3.6-8.5l4,8.5l2.1-9.2
						l4.8,9.2l-3.4-12.5c-3.5-1.7-5.4-2.9-5.7-3.6c-3.9-8.6-1.4-17.9-1.8-25.6c-0.4-7.3-1.6-35.8-1.6-87.4c0-6.2-0.1-14.2,0-22.3
						c0-1.8,0.5-5.6,1.6-11.3l4-13.4l9.2-14l17.4,14l-17.4-56.2L248.8,293h-30l-25,10.7l-20.6,56.2l20.6-14l10.3,14
						c3.8,7.7,5.7,13.4,5.8,17c1.1,29.4,2.7,80.8,2,136.4C211.9,517.1,211.2,519.3,210,519.9z"/>
					<path id="Path-2" class="st5" d="M232.7,293c-0.2-8.7-0.2-16,0-21.9c0.2-5.9,0.2-40,0-102.3c-0.9-11.8-0.2-19.2,2.1-22.3
						c1.7-2.3,2.2-4,5.7-6.7c7.5-5.7,20.8-1,26.1,4.1c3.5,3.4,10.1,7.7,19.8,13c-17.1-1.9-26.4-1.4-28,1.5c-1.4,2.6-16.3,5-17.3,5
						c-0.7,0-1.5,2.5-2.5,7.6v7.1v11.7v9.1V293h-3H232.7z"/>
					<ellipse id="Oval" class="st6" cx="252.4" cy="148.8" rx="7.1" ry="6.9"/>
					<ellipse id="Oval-2" class="st7" cx="249.8" cy="146.7" rx="2.9" ry="3.2"/>
					<path id="Path-3" class="st8" d="M286.1,156.2c-7.5-1.6-14.9-3.2-22.4-4.7"/>
					<path id="Path-4" class="st9" d="M270.2,148.7c2.2,2.1,1.7,2.7,2.2,0.7"/>
				</g>
			</g>
			<polyline id="Path-5" class="st10" points="206.7,311 204.6,311 204.3,311 204,311 203.5,311 203.1,311 202.6,311 201.6,311 
				201.1,311 200.8,311 200.7,311 			"/>
			<path id="Path-6" class="st10" d="M203.7,320.2c-2-0.1-4-0.2-6-0.3"/>
			<polyline id="Path-7" class="st10" points="202.6,333.7 200,333.7 198.7,333.7 197.7,333.7 196.7,333.7 195.4,333.7 194.4,333.7 
							"/>
			<path id="Path-8" class="st10" d="M209.3,342.3c-0.7,0.6-1.4,1.2-2.1,1.8"/>
			<path id="Path-9" class="st10" d="M224.5,354.2c-1.6,1.1-3.1,2.3-4.7,3.4"/>
			<path id="Path-10" class="st10" d="M217.8,318.9c5.6,0,3.3-0.5,7.1,0.8"/>
			<path id="Path-11" class="st10" d="M225,336.2c0-1.2,0-2.5,0-3.7"/>
			<polyline id="Path-12" class="st10" points="235.7,336.6 237.5,336.6 238,336.6 238.5,336.6 239.1,336.6 239.6,336.6 
				240.1,336.6 240.4,336.6 240.7,336.6 241,336.6 241.2,336.6 241.3,336.6 241.4,336.6 241.6,336.6 			"/>
			<path id="Path-13" class="st10" d="M241.4,330.4c0.1-1.6,0.2-3.1,0.3-4.7"/>
			<path id="Path-14" class="st10" d="M239.7,312.3c1.8-2.9,0.4-1.7,5-2.3"/>
			<path id="Path-15" class="st10" d="M225.6,303.3c0-3.7-0.6-1.7,4.2-4.9"/>
			<path id="Path-16" class="st10" d="M258.8,312.1c0.5-0.9,0.9-1.8,1.4-2.7"/>
			<polyline id="Path-17" class="st10" points="254.2,329.1 255.9,329.1 256.2,329.1 256.5,329.1 256.7,329.1 257,329.1 
				257.1,329.1 257.4,329.1 257.6,329.1 257.7,329.1 257.9,329.1 258,329.1 258.1,329.1 			"/>
			<path id="Path-18" class="st10" d="M251.1,343.6c0.4,2.2,0.7,4.3,1.1,6.5"/>
			<path id="Path-19" class="st10" d="M240.2,349.9c-0.7,0.9-1.3,1.8-2,2.7"/>
			<path id="Path-20" class="st10" d="M233.9,358.3c-0.6,1.6-1.2,3.1-1.7,4.7"/>
			<path id="Path-21" class="st10" d="M254.1,359.5c-1.7,0-3.3,0-5,0"/>
			<polyline id="Path-22" class="st10" points="270.2,335.2 268.6,335.2 268.2,335.2 267.5,335.2 267.3,335.2 266.8,335.2 
				266.5,335.2 266.4,335.2 			"/>
		</g>
		<path id="Path_1_" class="st11" d="M457.9,670.9c-13.8,30.8-2.5,6,0,6.8c6.6,2.2,6.9,22.8,5.1,0.7c-0.2-2.8,6.5,9.8,6.1,8.5
			c-7.6-26.2-6.1-40.5-6.1-83.2c0-21.3-0.8-81.3-1.4-78l7.5-7.9l9.5,7.9l11.3-7.9l9.2,7.9l2,77.5v83.7l3.6-8.5l4,8.5l2.1-9.2
			l4.8,9.2l-3.4-12.5c-3.5-1.7-5.4-2.9-5.7-3.6c-3.9-8.6-1.4-17.9-1.8-25.6c-0.4-7.3-1.6-35.8-1.6-87.4c0-6.2-0.1-14.2,0-22.3
			c0-1.8,0.5-5.6,1.6-11.3l4-13.4l9.2-14l17.4,14l-17.4-56.2L496.7,444h-30l-25,10.7l-20.6,56.2l20.6-14l10.3,14
			c3.8,7.7,5.7,13.4,5.8,17c1.1,29.4,2.7,80.8,2,136.4C459.8,668.1,459.1,670.3,457.9,670.9z"/>
		<path id="Path-2_1_" class="st12" d="M480.6,443.8c-0.2-61.4-0.2-95,0-100.9c0.2-5.9,0.2-40,0-102.3c-0.9-11.8-0.2-19.2,2.1-22.3
			c1.7-2.3,2.2-4,5.7-6.7c7.5-5.7,20.8-1,26.1,4.1c3.5,3.4,10.1,7.7,19.8,13c-17.1-1.9-26.4-1.4-28,1.5c-1.4,2.6-16.3,5-17.3,5
			c-0.7,0-1.5,2.5-2.5,7.6l-1.5,7.6v11.4v10.2v172h-2.3H480.6z"/>
		<ellipse id="Oval_1_" class="st12" cx="500.3" cy="220.7" rx="7.1" ry="6.9"/>
		<ellipse id="Oval-2_1_" class="st13" cx="497.7" cy="218.6" rx="2.9" ry="3.2"/>
		<path id="Path-3_1_" class="st14" d="M534.1,228c-7.5-1.6-14.9-3.2-22.4-4.7"/>
		<path id="Path-4_1_" class="st15" d="M518.1,220.6c2.2,2.1,1.7,2.7,2.2,0.7"/>
		<polyline id="Path-5_1_" class="st16" points="454.6,462 452.5,462 452.2,462 451.9,462 451.4,462 451.1,462 450.6,462 449.5,462 
			449,462 448.7,462 448.6,462 		"/>
		<path id="Path-6_1_" class="st16" d="M451.6,471.2c-2-0.1-4-0.2-6-0.3"/>
		<polyline id="Path-7_1_" class="st16" points="450.5,484.7 448,484.7 446.7,484.7 445.6,484.7 444.6,484.7 443.3,484.7 
			442.3,484.7 		"/>
		<path id="Path-8_1_" class="st16" d="M457.2,493.3c-0.7,0.6-1.4,1.2-2.1,1.8"/>
		<path id="Path-9_1_" class="st16" d="M472.4,505.2c-1.6,1.1-3.1,2.3-4.7,3.4"/>
		<path id="Path-10_1_" class="st16" d="M465.7,469.9c5.6,0,3.3-0.5,7.1,0.8"/>
		<path id="Path-11_1_" class="st16" d="M472.9,487.2c0-1.2,0-2.5,0-3.7"/>
		<polyline id="Path-12_1_" class="st16" points="483.6,487.6 485.4,487.6 486,487.6 486.5,487.6 487,487.6 487.5,487.6 488,487.6 
			488.3,487.6 488.6,487.6 488.9,487.6 489.1,487.6 489.2,487.6 489.4,487.6 489.5,487.6 		"/>
		<path id="Path-13_1_" class="st16" d="M489.4,481.4c0.1-1.6,0.2-3.1,0.3-4.7"/>
		<path id="Path-14_1_" class="st16" d="M487.7,463.3c1.8-2.9,0.4-1.7,5-2.3"/>
		<path id="Path-15_1_" class="st16" d="M473.5,454.3c0-3.7-0.6-1.7,4.2-4.9"/>
		<path id="Path-16_1_" class="st16" d="M506.7,463.1c0.5-0.9,0.9-1.8,1.4-2.7"/>
		<polyline id="Path-17_1_" class="st16" points="502.1,480.1 503.8,480.1 504.1,480.1 504.5,480.1 504.6,480.1 504.9,480.1 
			505.1,480.1 505.4,480.1 505.5,480.1 505.6,480.1 505.8,480.1 505.9,480.1 506,480.1 		"/>
		<path id="Path-18_1_" class="st16" d="M499,494.6c0.4,2.2,0.7,4.3,1.1,6.5"/>
		<path id="Path-19_1_" class="st16" d="M488.1,500.9c-0.7,0.9-1.3,1.8-2,2.7"/>
		<path id="Path-20_1_" class="st16" d="M481.8,509.3c-0.6,1.6-1.2,3.1-1.7,4.7"/>
		<path id="Path-21_1_" class="st16" d="M502,510.5c-1.7,0-3.3,0-5,0"/>
		<polyline id="Path-22_1_" class="st16" points="518.1,486.2 516.5,486.2 516.2,486.2 515.4,486.2 515.3,486.2 514.8,486.2 
			514.4,486.2 514.3,486.2 		"/>
		<polygon id="Path-23" class="st17" points="510.3,470.6 515.7,456.3 526.5,452.2 535.6,443 526.5,445.2 519.7,449.4 528,436.6 
			535.6,428.3 526.5,430.4 519.7,436.6 515.7,449.4 515.7,436.6 519.7,425.3 528,416.5 519.7,416.5 515.7,425.3 512.7,436.6 
			512.7,452.2 504.8,479 		"/>
		<polygon id="Path-23_1_" class="st17" points="458.4,470.6 450.4,456.3 434.4,452.2 420.9,443 434.4,445.2 444.4,449.4 
			432.2,436.6 420.9,428.3 434.4,430.4 444.4,436.6 450.4,449.4 450.4,436.6 444.4,425.3 432.2,416.5 444.4,416.5 450.4,425.3 
			454.8,436.6 454.8,452.2 466.5,479 		"/>
		<polygon id="Path-23_2_" class="st17" points="448.1,472.8 442.1,462.3 430.4,459.2 420.4,452.4 430.4,454 437.7,457.2 
			428.7,447.7 420.4,441.6 430.4,443.2 437.7,447.7 442.1,457.2 442.1,447.7 437.7,439.4 428.7,432.8 437.7,432.8 442.1,439.4 
			445.4,447.7 445.4,459.2 454.1,479 		"/>
		<g id="Group-5" transform="translate(818.000000, 151.000000)">
			<polygon id="Path-23_3_" class="st18" points="-65,349.2 -77.3,335.9 -101.6,332 -122.1,323.5 -101.6,325.5 -86.4,329.4 
				-105,317.5 -122.1,309.7 -101.6,311.8 -86.4,317.5 -77.3,329.4 -77.3,317.5 -86.4,307 -105,298.7 -86.4,298.7 -77.3,307 
				-70.6,317.5 -70.6,332 -52.7,357 			"/>
			<polygon id="Path-23_4_" class="st18" points="-92.6,322.6 -110.2,318.4 -125.7,328.2 -143.4,332.2 -131.4,322.9 -120.4,317.9 
				-140,318.2 -155.3,321.1 -143.4,311.7 -130.8,308.3 -115.9,313.1 -126.2,303.4 -139.9,299.7 -156.4,302.9 -147.1,293 
				-135.4,294.9 -122.9,299.9 -110.3,311.6 -79.6,322.4 			"/>
			<polygon id="Path-23_5_" class="st18" points="-116.3,339.4 -133.9,335.2 -149.4,345 -167.1,349 -155.1,339.7 -144.1,334.7 
				-163.7,335 -179,337.9 -167.1,328.5 -154.4,325.1 -139.6,329.9 -149.9,320.2 -163.6,316.5 -180.1,319.7 -170.8,309.8 
				-159.1,311.7 -146.6,316.7 -134,328.4 -103.3,339.2 			"/>
			<polygon id="Path-23_6_" class="st18" points="-108.3,322.5 -126,318.3 -141.5,328.1 -159.2,332.1 -147.2,322.8 -136.2,317.9 
				-155.8,318.1 -171.1,321 -159.1,311.6 -146.5,308.2 -131.7,313 -142,303.4 -155.7,299.6 -172.2,302.8 -162.9,292.9 -151.2,294.8 
				-138.7,299.8 -126.1,311.5 -95.4,322.3 			"/>
			<polygon id="Path-23_7_" class="st18" points="-92.2,342.6 -109.9,338.3 -125.4,348.1 -143,352.2 -131.1,342.8 -120.1,337.9 
				-139.7,338.2 -155,341 -143,331.7 -130.4,328.2 -115.5,333.1 -125.9,323.4 -139.6,319.7 -156.1,322.9 -146.8,313 -135.1,314.9 
				-122.6,319.8 -110,331.6 -79.3,342.4 			"/>
			<polygon id="Path-23_8_" class="st18" points="-51.4,381.8 -66.5,354.9 -96.6,347 -122.1,329.8 -96.6,333.8 -77.8,341.8 
				-100.8,317.8 -122.1,302 -96.6,306.1 -77.8,317.8 -66.5,341.8 -66.5,317.8 -77.8,296.5 -100.8,279.7 -77.8,279.7 -66.5,296.5 
				-58.2,317.8 -58.2,347 -36.1,397.7 			"/>
			<polygon id="Path-23_9_" class="st18" points="-80.9,317.1 -93.1,301.3 -117.4,296.7 -138,286.5 -117.4,288.9 -102.2,293.6 
				-120.8,279.4 -138,270.2 -117.4,272.5 -102.2,279.4 -93.1,293.6 -93.1,279.4 -102.2,266.9 -120.8,257 -102.2,257 -93.1,266.9 
				-86.4,279.4 -86.4,296.7 -68.6,326.5 			"/>
			<polygon id="Path-23_10_" class="st18" points="-36.5,291.8 -44.3,310.5 -36.2,329.2 -34.8,349.2 -43,334.5 -46.5,321.5 
				-49.6,343.1 -49.1,360.4 -57.3,345.6 -58.9,331.2 -51,315.7 -63.4,325.4 -69.9,339.8 -69.2,358.4 -78.5,346.5 -74.4,334 
				-66.8,321.1 -51.7,309.4 -34.5,277.6 			"/>
			<polygon id="Path-23_11_" class="st18" points="-110.5,317.2 -118.3,335.8 -110.2,354.5 -108.8,374.5 -117,359.8 -120.5,346.9 
				-123.6,368.4 -123.2,385.7 -131.3,371 -132.9,356.5 -125,341.1 -137.4,350.8 -143.9,365.1 -143.2,383.7 -152.5,371.8 
				-148.4,359.3 -140.8,346.5 -125.7,334.7 -108.5,302.9 			"/>
			<polygon id="Path-23_12_" class="st18" points="-153.7,302.4 -161.4,321 -153.4,339.7 -152,359.8 -160.2,345 -163.7,332.1 
				-166.8,353.6 -166.3,370.9 -174.5,356.2 -176,341.8 -168.2,326.3 -180.6,336 -187,350.3 -186.4,368.9 -195.6,357.1 -191.5,344.5 
				-183.9,331.7 -168.9,319.9 -151.7,288.2 			"/>
			<polygon id="Path-23_13_" class="st18" points="-50.4,386.2 -83.6,372.9 -128.7,387 -171.7,389.6 -134.7,375.2 -105,369.1 
				-147.8,363.9 -184.3,364.8 -147.3,350.5 -116,347.7 -89.5,361.2 -100.5,339.8 -125.6,328.7 -165,330 -133.2,313.8 -110.1,320.8 
				-89,333.9 -75.7,360 -22.2,389.6 			"/>
			<polygon id="Path-23_14_" class="st18" points="-45.7,339.7 -78.8,326.4 -124,340.6 -167,343.2 -130,328.8 -100.3,322.7 
				-143,317.4 -179.6,318.4 -142.6,304.1 -111.2,301.2 -84.8,314.8 -95.7,293.3 -120.9,282.2 -160.3,283.5 -128.5,267.3 
				-105.4,274.3 -84.2,287.5 -70.9,313.5 -17.4,343.1 			"/>
			<polygon id="Path-23_15_" class="st18" points="-154,303.2 -106.1,311.2 -48.4,279.5 9,263.7 -37.6,293.4 -76.3,310 -17.3,304.6 
				31.8,292.8 -14.9,322.5 -56.5,335.3 -95.4,325 -75.6,350.2 -39.1,357.6 13.8,344.5 -25.4,375.2 -58.2,372.6 -89.8,361.3 
				-113.8,330.6 -192.9,306.9 			"/>
			<polygon id="Path-23_16_" class="st18" points="-154,303.2 -106.1,311.2 -48.4,279.5 9,263.7 -37.6,293.4 -76.3,310 -17.3,304.6 
				31.8,292.8 -14.9,322.5 -56.5,335.3 -95.4,325 -75.6,350.2 -39.1,357.6 13.8,344.5 -25.4,375.2 -58.2,372.6 -89.8,361.3 
				-113.8,330.6 -192.9,306.9 			"/>
			<polygon id="Path-23_17_" class="st18" points="11.2,311 6.5,338.5 24.2,374.9 33,409.9 16.4,380.2 7.1,356.2 10,391.2 16.5,421 
				-0.1,391.3 -7.2,365.8 -1.2,343.8 -15.5,353.4 -19.8,374.3 -12.6,406.5 -29.7,381 -28.2,361.9 -21.7,344.2 -4.4,332.5 9.2,287.8 
							"/>
			<polygon id="Path-23_18_" class="st18" points="11.2,311 6.5,338.5 24.2,374.9 33,409.9 16.4,380.2 7.1,356.2 10,391.2 16.5,421 
				-0.1,391.3 -7.2,365.8 -1.2,343.8 -15.5,353.4 -19.8,374.3 -12.6,406.5 -29.7,381 -28.2,361.9 -21.7,344.2 -4.4,332.5 9.2,287.8 
							"/>
			<polygon id="Path-23_19_" class="st18" points="11.2,311 6.5,338.5 24.2,374.9 33,409.9 16.4,380.2 7.1,356.2 10,391.2 16.5,421 
				-0.1,391.3 -7.2,365.8 -1.2,343.8 -15.5,353.4 -19.8,374.3 -12.6,406.5 -29.7,381 -28.2,361.9 -21.7,344.2 -4.4,332.5 9.2,287.8 
							"/>
			<polygon id="Path-23_20_" class="st18" points="-72.9,325.6 -77.6,353.1 -59.9,389.5 -51.1,424.5 -67.7,394.8 -77,370.7 
				-74.1,405.8 -67.6,435.6 -84.1,405.9 -91.3,380.4 -85.3,358.3 -99.6,368 -103.9,388.9 -96.7,421 -113.8,395.6 -112.3,376.5 
				-105.8,358.8 -88.5,347.1 -74.9,302.4 			"/>
			<polygon id="Path-23_21_" class="st18" points="-133.6,319.3 -138.3,346.8 -120.5,383.2 -111.8,418.2 -128.4,388.4 -137.7,364.4 
				-134.8,399.5 -128.3,429.3 -144.8,399.5 -151.9,374 -146,352 -160.3,361.6 -164.6,382.6 -157.4,414.7 -174.5,389.3 -173,370.2 
				-166.5,352.4 -149.2,340.7 -135.6,296.1 			"/>
			<polygon id="Path-23_22_" class="st18" points="-103.9,312.4 -111.6,331.1 -103.6,349.7 -102.2,369.8 -110.4,355 -113.9,342.1 
				-117,363.7 -116.5,381 -124.7,366.2 -126.3,351.8 -118.4,336.3 -130.8,346 -137.2,360.4 -136.6,379 -145.8,367.1 -141.7,354.6 
				-134.1,341.7 -119.1,329.9 -101.9,298.2 			"/>
			<polygon id="Path-23_23_" class="st18" points="-9.4,333.5 -17.1,352.2 -9.1,370.8 -7.7,390.9 -15.9,376.2 -19.3,363.2 
				-22.5,384.8 -22,402.1 -30.2,387.3 -31.7,372.9 -23.9,357.4 -36.2,367.1 -42.7,381.5 -42,400.1 -51.3,388.2 -47.2,375.7 
				-39.6,362.8 -24.5,351.1 -7.4,319.3 			"/>
			<polygon id="Path-23_24_" class="st18" points="-31.4,353.9 -24.8,331.8 -34.7,315.4 -37.8,295.1 -28,307.4 -23.4,319.5 
				-21.8,296.1 -23.7,278.4 -14,290.7 -11.2,305 -18.2,323.9 -6,309.4 -0.4,292.2 -2.6,273.2 8,282.1 4.7,296.6 -2.2,312.6 
				-17,330.2 -32.4,369.3 			"/>
			<polygon id="Path-23_25_" class="st18" points="-92.5,320.3 -100.2,339 -92.2,357.7 -90.8,377.7 -99,363 -102.4,350 
				-105.6,371.6 -105.1,388.9 -113.3,374.1 -114.8,359.7 -107,344.2 -119.3,353.9 -125.8,368.3 -125.1,386.9 -134.4,375 
				-130.3,362.5 -122.7,349.6 -107.6,337.9 -90.5,306.1 			"/>
			<polygon id="Path-23_26_" class="st18" points="-115.9,306.1 -123.7,324.7 -115.6,343.4 -114.2,363.4 -122.4,348.7 -125.9,335.8 
				-129,357.3 -128.5,374.6 -136.7,359.9 -138.3,345.5 -130.4,330 -142.8,339.7 -149.2,354 -148.6,372.6 -157.8,360.8 -153.8,348.2 
				-146.1,335.4 -131.1,323.6 -113.9,291.9 			"/>
			<polygon id="Path-23_27_" class="st18" points="-75.8,327.4 -69.7,308.2 -79.4,290.3 -82.5,270.5 -73.1,284.4 -68.5,297 
				-67.3,275.3 -69.2,258.1 -59.8,272.1 -57,286.3 -63.5,302.4 -52,291.6 -46.8,276.8 -49.1,258.3 -38.8,269.3 -41.8,282.2 
				-48.3,295.6 -62.2,308.7 -76.6,341.8 			"/>
			<polygon id="Path-23_28_" class="st18" points="-41.1,338.8 -23.5,348.8 -4,343 16.1,344.1 0.5,350.4 -12.8,352.3 8.2,358 
				25.4,359.7 9.8,366 -4.7,365.8 -19.1,356.1 -11,369.6 2.5,377.7 21,379.3 8.1,387.1 -3.8,381.5 -15.7,372.4 -25.5,356 
				-54.9,335.1 			"/>
			<polygon id="Path-23_29_" class="st18" points="-47.2,319.9 -27.6,325 -10.3,314.5 9.4,310.3 -4.1,320.5 -16.4,325.7 5.4,325.8 
				22.5,322.9 9,333 -5.1,336.6 -21.5,331 -10.2,341.9 4.9,346.3 23.3,343 12.8,353.9 -0.2,351.6 -14,345.8 -27.7,332.5 
				-61.5,319.9 			"/>
			<polygon id="Path-23_30_" class="st18" points="-9.6,298.7 -17.4,317.3 -9.3,336 -7.9,356.1 -16.1,341.3 -19.6,328.4 
				-22.7,349.9 -22.2,367.2 -30.4,352.5 -32,338.1 -24.1,322.6 -36.5,332.3 -42.9,346.6 -42.3,365.2 -51.6,353.4 -47.5,340.9 
				-39.8,328 -24.8,316.2 -7.6,284.5 			"/>
			<polygon id="Path-23_31_" class="st18" points="-22.3,271.3 -30,289.9 -22,308.6 -20.6,328.6 -28.8,313.9 -32.2,300.9 
				-35.4,322.5 -34.9,339.8 -43.1,325 -44.6,310.6 -36.8,295.2 -49.2,304.8 -55.6,319.2 -55,337.8 -64.2,325.9 -60.1,313.4 
				-52.5,300.5 -37.5,288.8 -20.3,257 			"/>
			<polygon id="Path-23_32_" class="st18" points="-49.8,275 -63.6,301.3 -55,325.4 -56,352.3 -65.4,333.6 -68.4,316.6 -76.1,346.2 
				-78,369.5 -87.5,350.8 -87.6,331.6 -74,309.5 -93.2,324.4 -104.5,344.8 -106.4,369.8 -117.8,355.2 -110.1,337.6 -97.3,319.1 
				-74,300.9 -44.8,255.4 			"/>
			<polygon id="Path-23_33_" class="st18" points="-59.2,320.3 -67,339 -58.9,357.7 -57.5,377.7 -65.7,363 -69.2,350 -72.3,371.6 
				-71.8,388.9 -80,374.1 -81.6,359.7 -73.7,344.2 -86.1,353.9 -92.6,368.3 -91.9,386.9 -101.2,375 -97.1,362.5 -89.5,349.6 
				-74.4,337.9 -57.2,306.1 			"/>
			<polygon id="Path-23_34_" class="st18" points="-32.7,313.8 -30.4,331.1 -14,356.2 -2.9,379.6 -17.4,358.9 -26.9,342.5 
				-19,365.4 -10,385.2 -24.6,364.5 -33.1,347.4 -33.7,333.7 -39.9,338.6 -38.6,351.6 -28.8,373 -42.9,355 -45.4,342.9 -45,332.1 
				-37.5,326.2 -38,298.7 			"/>
			<polygon id="Path-23_35_" class="st18" points="17.3,302.8 6.1,327.1 15.5,350.5 16.2,376.1 6.3,357.7 2.5,341.4 -2.8,369.1 
				-3.2,391.3 -13,372.9 -14.2,354.5 -3,334.2 -19.8,347.4 -29.1,366.1 -29.3,389.9 -40.8,375.2 -34.7,359 -24,342 -3.6,326.1 
				20.8,284.5 			"/>
			<g id="Group-2_1_" transform="translate(142.000000, 0.000000)">
				<g id="Group_1_">
					<path id="Path_2_" class="st12" d="M-242.5,519.9c-13.8,30.8-2.5,6,0,6.8c6.6,2.2,6.9,22.8,5.1,0.7c-0.2-2.8,6.5,9.8,6.1,8.5
						c-7.6-26.2-6.1-40.5-6.1-83.2c0-21.3-0.8-81.3-1.4-78l7.5-7.9l9.5,7.9l11.3-7.9l9.2,7.9l2,77.5v83.7l3.6-8.5l4,8.5l2.1-9.2
						l4.8,9.2l-3.4-12.5c-3.5-1.7-5.4-2.9-5.7-3.6c-3.9-8.6-1.4-17.9-1.8-25.6c-0.4-7.3-1.6-35.8-1.6-87.4c0-6.2-0.1-14.2,0-22.3
						c0-1.8,0.5-5.6,1.6-11.3l4-13.4l9.2-14l17.4,14l-17.4-56.2l-21.1-10.7h-30l-25,10.7l-20.6,56.2l20.6-14l10.3,14
						c3.8,7.7,5.7,13.4,5.8,17c1.1,29.4,2.7,80.8,2,136.4C-240.6,517.1-241.2,519.3-242.5,519.9z"/>
					<path id="Path-2_2_" class="st19" d="M-219.7,293c-0.2-8.7-0.2-16,0-21.9c0.2-5.9,0.2-40,0-102.3c-0.9-11.8-0.2-19.2,2.1-22.3
						c1.7-2.3,2.2-4,5.7-6.7c7.5-5.7,20.8-1,26.1,4.1c3.5,3.4,10.1,7.7,19.8,13c-17.1-1.9-26.4-1.4-28,1.5c-1.4,2.6-16.3,5-17.3,5
						c-0.7,0-1.5,2.5-2.5,7.6v7.1v11.7v9.1V293h-3H-219.7z"/>
					<ellipse id="Oval_2_" class="st20" cx="-200" cy="148.8" rx="7.1" ry="6.9"/>
					<ellipse id="Oval-2_2_" class="st21" cx="-202.7" cy="146.7" rx="2.9" ry="3.2"/>
					<path id="Path-3_2_" class="st11" d="M-166.3,156.2c-7.5-1.6-14.9-3.2-22.4-4.7"/>
					<path id="Path-4_2_" class="st22" d="M-182.3,148.7c2.2,2.1,1.7,2.7,2.2,0.7"/>
				</g>
			</g>
			<polyline id="Path-5_2_" class="st22" points="-103.7,311 -105.8,311 -106.1,311 -106.5,311 -107,311 -107.3,311 -107.8,311 
				-108.9,311 -109.3,311 -109.6,311 -109.8,311 			"/>
			<path id="Path-6_2_" class="st22" d="M-106.7,320.2c-2-0.1-4-0.2-6-0.3"/>
			<polyline id="Path-7_2_" class="st22" points="-107.8,333.7 -110.4,333.7 -111.7,333.7 -112.7,333.7 -113.7,333.7 -115,333.7 
				-116,333.7 			"/>
			<path id="Path-8_2_" class="st22" d="M-101.1,342.3c-0.7,0.6-1.4,1.2-2.1,1.8"/>
			<path id="Path-9_2_" class="st22" d="M-86,354.2c-1.6,1.1-3.1,2.3-4.7,3.4"/>
			<path id="Path-10_2_" class="st22" d="M-92.6,318.9c5.6,0,3.3-0.5,7.1,0.8"/>
			<path id="Path-11_2_" class="st22" d="M-85.4,336.2c0-1.2,0-2.5,0-3.7"/>
			<polyline id="Path-12_2_" class="st22" points="-74.8,336.6 -72.9,336.6 -72.4,336.6 -71.9,336.6 -71.4,336.6 -70.9,336.6 
				-70.3,336.6 -70,336.6 -69.7,336.6 -69.4,336.6 -69.3,336.6 -69.1,336.6 -69,336.6 -68.9,336.6 			"/>
			<path id="Path-13_2_" class="st22" d="M-69,330.4c0.1-1.6,0.2-3.1,0.3-4.7"/>
			<path id="Path-14_2_" class="st22" d="M-70.7,312.3c1.8-2.9,0.4-1.7,5-2.3"/>
			<path id="Path-15_2_" class="st22" d="M-84.8,303.3c0-3.7-0.6-1.7,4.2-4.9"/>
			<path id="Path-16_2_" class="st22" d="M-51.6,312.1c0.5-0.9,0.9-1.8,1.4-2.7"/>
			<polyline id="Path-17_2_" class="st22" points="-56.2,329.1 -54.5,329.1 -54.2,329.1 -53.9,329.1 -53.8,329.1 -53.4,329.1 
				-53.3,329.1 -53,329.1 -52.9,329.1 -52.7,329.1 -52.6,329.1 -52.4,329.1 -52.3,329.1 			"/>
			<path id="Path-18_2_" class="st22" d="M-59.4,343.6c0.4,2.2,0.7,4.3,1.1,6.5"/>
			<path id="Path-19_2_" class="st22" d="M-70.3,349.9c-0.7,0.9-1.3,1.8-2,2.7"/>
			<path id="Path-20_2_" class="st22" d="M-76.5,358.3c-0.6,1.6-1.2,3.1-1.7,4.7"/>
			<path id="Path-21_2_" class="st22" d="M-56.3,359.5c-1.7,0-3.3,0-5,0"/>
			<polyline id="Path-22_2_" class="st22" points="-40.2,335.2 -41.9,335.2 -42.2,335.2 -42.9,335.2 -43.1,335.2 -43.6,335.2 
				-43.9,335.2 -44.1,335.2 			"/>
			<polygon id="Path-23_36_" class="st18" points="-48.1,319.6 -42.6,305.3 -31.9,301.2 -22.7,292 -31.9,294.2 -38.6,298.4 
				-30.4,285.6 -22.7,277.3 -31.9,279.4 -38.6,285.6 -42.6,298.4 -42.6,285.6 -38.6,274.3 -30.4,265.5 -38.6,265.5 -42.6,274.3 
				-45.6,285.6 -45.6,301.2 -53.5,328 			"/>
			<polygon id="Path-23_37_" class="st18" points="-99.9,319.6 -108,305.3 -123.9,301.2 -137.5,292 -123.9,294.2 -113.9,298.4 
				-126.1,285.6 -137.5,277.3 -123.9,279.4 -113.9,285.6 -108,298.4 -108,285.6 -113.9,274.3 -126.1,265.5 -113.9,265.5 -108,274.3 
				-103.5,285.6 -103.5,301.2 -91.8,328 			"/>
			<polygon id="Path-23_38_" class="st18" points="-110.3,321.8 -116.2,311.3 -128,308.2 -138,301.4 -128,303 -120.6,306.2 
				-129.6,296.7 -138,290.6 -128,292.2 -120.6,296.7 -116.2,306.2 -116.2,296.7 -120.6,288.4 -129.6,281.8 -120.6,281.8 
				-116.2,288.4 -112.9,296.7 -112.9,308.2 -104.3,328 			"/>
		</g>
	</g>
</g>
</svg>
