<?xml version="1.0" encoding="utf-8"?>
<!-- Generator: Adobe Illustrator 22.0.1, SVG Export Plug-In . SVG Version: 6.00 Build 0)  -->
<svg version="1.1" id="Layer_1" xmlns="http://www.w3.org/2000/svg" xmlns:xlink="http://www.w3.org/1999/xlink" x="0px" y="0px"
	 viewBox="0 0 80 300" style="enable-background:new 0 0 80 300;" xml:space="preserve">
<style type="text/css">
	.st0{clip-path:url(#SVGID_2_);fill:none;stroke:#151414;stroke-width:0.6443;stroke-miterlimit:10;}
	.st1{clip-path:url(#SVGID_2_);fill:none;stroke:#0C0C0C;stroke-width:0.6443;stroke-miterlimit:10;}
	.st2{clip-path:url(#SVGID_2_);fill:none;stroke:#0E0E0E;stroke-width:0.3222;stroke-miterlimit:10;}
	.st3{clip-path:url(#SVGID_4_);}
	.st4{clip-path:url(#SVGID_6_);fill:#1B1A1A;}
	.st5{clip-path:url(#SVGID_8_);fill:none;stroke:#979797;stroke-width:0.3222;stroke-miterlimit:10;}
	.st6{clip-path:url(#SVGID_10_);}
	.st7{clip-path:url(#SVGID_12_);fill:#1B1A1A;}
	.st8{clip-path:url(#SVGID_14_);fill:none;stroke:#979797;stroke-width:0.3222;stroke-miterlimit:10;}
	.st9{clip-path:url(#SVGID_16_);}
	.st10{clip-path:url(#SVGID_18_);fill:#1B1A1A;}
	.st11{clip-path:url(#SVGID_20_);fill:none;stroke:#979797;stroke-width:0.3222;stroke-miterlimit:10;}
	.st12{clip-path:url(#SVGID_20_);fill:none;stroke:#0C0C0C;stroke-width:0.6443;stroke-miterlimit:10;}
	.st13{clip-path:url(#SVGID_22_);}
	.st14{clip-path:url(#SVGID_24_);fill:#151415;}
	.st15{clip-path:url(#SVGID_26_);fill:none;stroke:#090909;stroke-width:0.6443;stroke-miterlimit:10;}
	.st16{clip-path:url(#SVGID_26_);fill:none;stroke:#111010;stroke-width:0.3222;stroke-miterlimit:10;}
</style>
<g>
	<g>
		<defs>
			<rect id="SVGID_1_" x="4" width="75.1" height="299"/>
		</defs>
		<clipPath id="SVGID_2_">
			<use xlink:href="#SVGID_1_"  style="overflow:visible;"/>
		</clipPath>
		<path class="st0" d="M29.3,284.6c-8.4,18.8-1.5,3.7,0,4.2c4.1,1.4,4.2,13.9,3.1,0.4c-0.1-1.7,4,6,3.7,5.2
			c-4.6-16-3.7-24.7-3.7-50.8c0-13-0.5-49.6-0.8-47.6l4.6-4.8l5.8,4.8l6.9-4.8l5.6,4.8l1.2,47.2v51.1l2.2-5.2l2.4,5.2l1.3-5.6
			l2.9,5.6l-2.1-7.6c-2.1-1-3.3-1.7-3.5-2.2c-2.4-5.3-0.8-10.9-1.1-15.6c-0.2-4.5-1-21.8-1-53.3c0-3.8,0-8.7,0-13.6
			c0-1.1,0.3-3.4,1-6.9l2.4-8.2l5.6-8.6l10.6,8.6l-10.6-34.3L53,146.3H34.7l-15.2,6.5L6.9,187l12.6-8.6l6.3,8.6
			c2.3,4.7,3.5,8.2,3.6,10.4c0.7,17.9,1.7,49.3,1.2,83.2C30.5,282.9,30.1,284.3,29.3,284.6z"/>
		<path class="st1" d="M42.9,146.3c-0.1-37.5-0.1-58,0-61.6c0.1-3.6,0.1-24.4,0-62.5c-0.6-7.2-0.1-11.7,1.3-13.6
			c1.1-1.4,1.3-2.4,3.5-4.1C52.3,1,60.4,3.9,63.7,7c2.2,2.1,6.2,4.7,12.2,7.9c-10.5-1.2-16.2-0.9-17.2,0.9c-0.9,1.6-10,3-10.6,3
			c-0.4,0-0.9,1.5-1.5,4.6l-0.9,4.6V35v6.2v105h-1.4H42.9z"/>
		<polyline class="st2" points="26.9,157.2 25.6,157.2 25.5,157.2 25.3,157.2 25,157.2 24.8,157.2 24.5,157.2 23.9,157.2 
			23.6,157.2 23.4,157.2 23.3,157.2 		"/>
		<path class="st2" d="M25.3,162.9c-1.2-0.1-2.4-0.1-3.5-0.2"/>
		<polyline class="st2" points="24.9,171.4 23.3,171.4 22.5,171.4 21.9,171.4 21.2,171.4 20.4,171.4 19.8,171.4 		"/>
		<path class="st2" d="M28.8,176.5c-0.4,0.3-0.9,0.6-1.3,1"/>
		<path class="st2" d="M38.1,183.6c-1,0.6-1.9,1.3-2.9,1.9"/>
		<path class="st2" d="M34,162.1c3.5,0,2.1-0.4,4.5,0.6"/>
		<path class="st2" d="M38.5,172.7c0-0.8,0-1.5,0-2.3"/>
		<polyline class="st2" points="44.9,173 46,173 46.3,173 46.6,173 46.9,173 47.3,173 47.6,173 47.7,173 47.9,173 48.1,173 
			48.2,173 48.3,173 48.4,173 48.5,173 		"/>
		<path class="st2" d="M48.5,169.1c0.1-1,0.1-1.9,0.2-2.9"/>
		<path class="st2" d="M47.2,157.9c1-1.6,0.2-1,2.9-1.3"/>
		<path class="st2" d="M38.8,152.7c0-2.2-0.3-1,2.6-2.9"/>
		<path class="st2" d="M59.1,157.9c0.3-0.5,0.6-1.1,1-1.6"/>
		<polyline class="st2" points="56.2,168.5 57.2,168.5 57.4,168.5 57.5,168.5 57.6,168.5 57.8,168.5 57.9,168.5 58.1,168.5 
			58.1,168.5 58.2,168.5 58.3,168.5 58.4,168.5 58.4,168.5 		"/>
		<path class="st2" d="M54.3,177.2c0.2,1.3,0.4,2.6,0.6,3.9"/>
		<path class="st2" d="M47.8,181.1c-0.4,0.5-0.9,1.1-1.3,1.6"/>
		<path class="st2" d="M43.6,186.2c-0.3,1-0.6,1.9-1,2.9"/>
		<path class="st2" d="M56.2,186.9c-1.1,0-2.1,0-3.2,0"/>
		<polyline class="st2" points="65.9,172 64.9,172 64.7,172 64.3,172 64.2,172 63.9,172 63.7,172 63.6,172 		"/>
	</g>
	<g>
		<defs>
			<polygon id="SVGID_3_" points="61.1,162.4 64.4,153.7 70.9,151.2 76.5,145.7 70.9,146.9 66.8,149.5 71.9,141.8 76.5,136.7 
				70.9,138 66.8,141.8 64.4,149.5 64.4,141.8 66.8,134.9 71.9,129.5 66.8,129.5 64.4,134.9 62.6,141.8 62.6,151.2 57.8,167.5 			
				"/>
		</defs>
		<clipPath id="SVGID_4_">
			<use xlink:href="#SVGID_3_"  style="overflow:visible;"/>
		</clipPath>
		<g class="st3">
			<defs>
				<rect id="SVGID_5_" x="4" width="75.1" height="299"/>
			</defs>
			<clipPath id="SVGID_6_">
				<use xlink:href="#SVGID_5_"  style="overflow:visible;"/>
			</clipPath>
			<rect x="56.2" y="127.9" class="st4" width="21.9" height="41.2"/>
		</g>
	</g>
	<g>
		<defs>
			<rect id="SVGID_7_" x="4" width="75.1" height="299"/>
		</defs>
		<clipPath id="SVGID_8_">
			<use xlink:href="#SVGID_7_"  style="overflow:visible;"/>
		</clipPath>
		<polygon class="st5" points="61.1,162.4 64.4,153.7 70.9,151.2 76.5,145.7 70.9,146.9 66.8,149.5 71.9,141.8 76.5,136.7 70.9,138 
			66.8,141.8 64.4,149.5 64.4,141.8 66.8,134.9 71.9,129.5 66.8,129.5 64.4,134.9 62.6,141.8 62.6,151.2 57.8,167.5 		"/>
	</g>
	<g>
		<defs>
			<polygon id="SVGID_9_" points="29.4,162.4 24.5,153.7 14.8,151.2 6.6,145.7 14.8,146.9 20.9,149.5 13.4,141.8 6.6,136.7 
				14.8,138 20.9,141.8 24.5,149.5 24.5,141.8 20.9,134.9 13.4,129.5 20.9,129.5 24.5,134.9 27.2,141.8 27.2,151.2 34.3,167.5 			
				"/>
		</defs>
		<clipPath id="SVGID_10_">
			<use xlink:href="#SVGID_9_"  style="overflow:visible;"/>
		</clipPath>
		<g class="st6">
			<defs>
				<rect id="SVGID_11_" x="4" width="75.1" height="299"/>
			</defs>
			<clipPath id="SVGID_12_">
				<use xlink:href="#SVGID_11_"  style="overflow:visible;"/>
			</clipPath>
			<rect x="5" y="127.9" class="st7" width="30.9" height="41.2"/>
		</g>
	</g>
	<g>
		<defs>
			<rect id="SVGID_13_" x="4" width="75.1" height="299"/>
		</defs>
		<clipPath id="SVGID_14_">
			<use xlink:href="#SVGID_13_"  style="overflow:visible;"/>
		</clipPath>
		<polygon class="st8" points="29.4,162.4 24.5,153.7 14.8,151.2 6.6,145.7 14.8,146.9 20.9,149.5 13.4,141.8 6.6,136.7 14.8,138 
			20.9,141.8 24.5,149.5 24.5,141.8 20.9,134.9 13.4,129.5 20.9,129.5 24.5,134.9 27.2,141.8 27.2,151.2 34.3,167.5 		"/>
	</g>
	<g>
		<defs>
			<polygon id="SVGID_15_" points="23.2,163.8 19.6,157.4 12.4,155.5 6.3,151.4 12.4,152.4 16.9,154.3 11.4,148.5 6.3,144.8 
				12.4,145.8 16.9,148.5 19.6,154.3 19.6,148.5 16.9,143.5 11.4,139.5 16.9,139.5 19.6,143.5 21.6,148.5 21.6,155.5 26.9,167.5 			
				"/>
		</defs>
		<clipPath id="SVGID_16_">
			<use xlink:href="#SVGID_15_"  style="overflow:visible;"/>
		</clipPath>
		<g class="st9">
			<defs>
				<rect id="SVGID_17_" x="4" width="75.1" height="299"/>
			</defs>
			<clipPath id="SVGID_18_">
				<use xlink:href="#SVGID_17_"  style="overflow:visible;"/>
			</clipPath>
			<rect x="4.6" y="137.9" class="st10" width="23.8" height="31.2"/>
		</g>
	</g>
	<g>
		<defs>
			<rect id="SVGID_19_" x="4" width="75.1" height="299"/>
		</defs>
		<clipPath id="SVGID_20_">
			<use xlink:href="#SVGID_19_"  style="overflow:visible;"/>
		</clipPath>
		<polygon class="st11" points="23.2,163.8 19.6,157.4 12.4,155.5 6.3,151.4 12.4,152.4 16.9,154.3 11.4,148.5 6.3,144.8 
			12.4,145.8 16.9,148.5 19.6,154.3 19.6,148.5 16.9,143.5 11.4,139.5 16.9,139.5 19.6,143.5 21.6,148.5 21.6,155.5 26.9,167.5 		
			"/>
		<ellipse class="st12" cx="55.1" cy="10" rx="4.3" ry="4.2"/>
	</g>
	<g>
		<defs>
			<ellipse id="SVGID_21_" cx="53.5" cy="8.7" rx="1.8" ry="1.9"/>
		</defs>
		<clipPath id="SVGID_22_">
			<use xlink:href="#SVGID_21_"  style="overflow:visible;"/>
		</clipPath>
		<g class="st13">
			<defs>
				<rect id="SVGID_23_" x="4" width="75.1" height="299"/>
			</defs>
			<clipPath id="SVGID_24_">
				<use xlink:href="#SVGID_23_"  style="overflow:visible;"/>
			</clipPath>
			<rect x="50.1" y="5.2" class="st14" width="6.8" height="7.1"/>
		</g>
	</g>
	<g>
		<defs>
			<rect id="SVGID_25_" x="4" width="75.1" height="299"/>
		</defs>
		<clipPath id="SVGID_26_">
			<use xlink:href="#SVGID_25_"  style="overflow:visible;"/>
		</clipPath>
		<path class="st15" d="M75.5,14.5c-4.5-1-9-1.9-13.5-2.9"/>
		<path class="st16" d="M65.9,10c1.3,1.4,1,1.8,1.3,0.5"/>
	</g>
</g>
</svg>
