<svg id="Layer_1" data-name="Layer 1" xmlns="http://www.w3.org/2000/svg" viewBox="0 0 1020 1020"><defs><style>.cls-1{font-size:30px;fill:#333;font-family:BungeeHairline-Regular, Bungee Hairline;}.cls-2{letter-spacing:0em;}.cls-10,.cls-11,.cls-13,.cls-14,.cls-15,.cls-18,.cls-19,.cls-21,.cls-3,.cls-4,.cls-5,.cls-7,.cls-8{fill:none;}.cls-3{stroke:#030303;}.cls-10,.cls-11,.cls-13,.cls-18,.cls-19,.cls-3,.cls-4,.cls-5,.cls-7{stroke-width:1.06px;}.cls-4{stroke:#121111;}.cls-5,.cls-8{stroke:#111010;}.cls-6{fill:#030303;}.cls-7{stroke:#111;}.cls-14,.cls-15,.cls-16,.cls-21,.cls-8,.cls-9{stroke-width:0.53px;}.cls-9{fill:#d8d9d8;stroke:#070707;}.cls-10{stroke:#171616;}.cls-11{stroke:#0d0e0e;}.cls-12{fill:#171617;}.cls-13{stroke:#0b0b0b;}.cls-14{stroke:#131212;}.cls-15{stroke:#101010;}.cls-16,.cls-17{fill:#1b1a1a;}.cls-16,.cls-21{stroke:#979797;}.cls-18{stroke:#151313;}.cls-19{stroke:#121212;}.cls-20{fill:#141414;}</style></defs><title>Artboard 1</title><text class="cls-1" transform="translate(400.95 735.73)">UX designer</text><text class="cls-1" transform="translate(149.95 735.9)">Resea<tspan class="cls-2" x="102.93" y="0">r</tspan><tspan x="125.07" y="0">cher</tspan></text><text class="cls-1" transform="translate(660.95 735.73)">Filmmaker</text><g id="Page-1"><g id="Group-3"><g id="Group-2"><g id="Group"><path id="Path" class="cls-3" d="M212,670.87c-13.81,30.76-2.5,6,0,6.84,6.65,2.23,6.91,22.77,5.13.72-.22-2.75,6.54,9.83,6.14,8.45-7.57-26.16-6.14-40.48-6.14-83.22,0-21.28-.79-81.3-1.36-78l7.5-7.94,9.5,7.94L244,517.74l9.18,7.94,2,77.46v83.74l3.57-8.45,4,8.45,2.13-9.17,4.76,9.17-3.4-12.46q-5.24-2.52-5.7-3.55c-3.85-8.65-1.35-17.86-1.76-25.6-.39-7.3-1.61-35.78-1.61-87.39,0-6.21-.05-14.21,0-22.32a84.73,84.73,0,0,1,1.61-11.32l4-13.4,9.19-14,17.35,14-17.35-56.19L250.79,444H220.84l-25,10.67-20.63,56.19,20.63-14,10.25,14q5.64,11.61,5.84,17c1.1,29.4,2.74,80.79,2,136.4Q213.86,670,212,670.87Z"/><path id="Path-2" class="cls-4" d="M234.72,444q-.22-13.1,0-21.91t0-102.33q-1.4-17.69,2.1-22.32c1.75-2.32,2.18-4,5.74-6.67,7.46-5.65,20.79-1,26.07,4.06q5.28,5.08,19.85,12.95-25.65-2.88-28,1.46c-1.41,2.57-16.3,5-17.32,5q-1,0-2.52,7.61V444h-5.9Z"/><ellipse id="Oval" class="cls-5" cx="254.4" cy="299.85" rx="7.12" ry="6.86"/><ellipse id="Oval-2" class="cls-6" cx="251.76" cy="297.73" rx="2.9" ry="3.17"/><path id="Path-3" class="cls-7" d="M288.13,307.2l-22.38-4.75"/><path id="Path-4" class="cls-8" d="M272.16,299.74c2.17,2.07,1.66,2.66,2.2.75"/></g></g><polyline id="Path-5" class="cls-9" points="208.69 462.01 206.6 462.01 206.29 462.01 205.98 462.01 205.46 462.01 205.15 462.01 204.63 462.01 203.57 462.01 203.11 462.01 202.8 462.01 202.66 462.01"/><path id="Path-6" class="cls-9" d="M205.71,471.21l-6-.28"/><polyline id="Path-7" class="cls-9" points="204.6 484.75 202.03 484.75 200.73 484.75 199.72 484.75 198.7 484.75 197.4 484.75 196.39 484.75"/><path id="Path-8" class="cls-9" d="M211.31,493.33l-2.08,1.76"/><path id="Path-9" class="cls-9" d="M226.47,505.21l-4.72,3.39"/><path id="Path-10" class="cls-9" d="M219.79,469.89c5.61,0,3.27-.54,7.13.83"/><path id="Path-11" class="cls-9" d="M227,487.2v-3.67"/><polyline id="Path-12" class="cls-9" points="237.67 487.6 239.51 487.6 240.03 487.6 240.54 487.6 241.06 487.6 241.57 487.6 242.08 487.6 242.39 487.6 242.71 487.6 243.02 487.6 243.16 487.6 243.3 487.6 243.44 487.6 243.58 487.6"/><path id="Path-13" class="cls-9" d="M243.44,481.39l.28-4.73"/><path id="Path-14" class="cls-9" d="M241.73,463.25c1.77-2.91.4-1.71,5-2.28"/><path id="Path-15" class="cls-9" d="M227.59,454.31c0-3.72-.56-1.66,4.19-4.86"/><path id="Path-16" class="cls-9" d="M260.8,463.1l1.38-2.75"/><polyline id="Path-17" class="cls-9" points="256.21 480.13 257.91 480.13 258.23 480.13 258.54 480.13 258.68 480.13 258.99 480.13 259.13 480.13 259.44 480.13 259.58 480.13 259.71 480.13 259.85 480.13 259.98 480.13 260.12 480.13"/><path id="Path-18" class="cls-9" d="M253.06,494.6l1.08,6.5"/><path id="Path-19" class="cls-9" d="M242.17,500.94l-2,2.68"/><path id="Path-20" class="cls-9" d="M235.9,509.28l-1.73,4.7"/><path id="Path-21" class="cls-9" d="M256.08,510.47h-5"/><polyline id="Path-22" class="cls-9" points="272.2 486.18 270.55 486.18 270.24 486.18 269.49 486.18 269.35 486.18 268.83 486.18 268.52 486.18 268.37 486.18"/></g><path id="Path-2-2" data-name="Path" class="cls-10" d="M457.9,670.87c-13.82,30.76-2.5,6,0,6.84,6.65,2.23,6.9,22.77,5.13.72-.22-2.75,6.54,9.83,6.14,8.45-7.58-26.16-6.14-40.48-6.14-83.22,0-21.28-.8-81.3-1.37-78l7.51-7.94,9.5,7.94,11.27-7.94,9.17,7.94,2,77.46v83.74l3.56-8.45,4,8.45,2.12-9.17,4.76,9.17-3.4-12.46q-5.23-2.52-5.7-3.55c-3.85-8.65-1.35-17.86-1.76-25.6-.39-7.3-1.61-35.78-1.61-87.39,0-6.21-.05-14.21,0-22.32a86.53,86.53,0,0,1,1.61-11.32l4-13.4,9.18-14,17.36,14-17.36-56.19L496.71,444H466.76l-25,10.67-20.62,56.19,20.62-14,10.25,14q5.65,11.61,5.85,17c1.1,29.4,2.73,80.79,2,136.4Q459.77,670,457.9,670.87Z"/><path id="Path-2-3" data-name="Path-2" class="cls-11" d="M480.65,443.82q-.24-92.1,0-100.91t0-102.33q-1.41-17.69,2.09-22.32c1.75-2.32,2.19-4,5.74-6.67,7.46-5.65,20.8-1,26.07,4.06q5.28,5.08,19.85,12.95-25.64-2.88-28,1.46c-1.41,2.57-16.29,5-17.32,5q-1,0-2.52,7.61l-1.46,7.61V443.82h-4.43Z"/><ellipse id="Oval-2-2" data-name="Oval" class="cls-11" cx="500.32" cy="220.69" rx="7.12" ry="6.86"/><ellipse id="Oval-2-3" data-name="Oval-2" class="cls-12" cx="497.69" cy="218.57" rx="2.9" ry="3.17"/><path id="Path-3-2" data-name="Path-3" class="cls-13" d="M534.05,228l-22.38-4.75"/><path id="Path-4-2" data-name="Path-4" class="cls-14" d="M518.08,220.58c2.17,2.07,1.67,2.66,2.21.75"/><polyline id="Path-5-2" data-name="Path-5" class="cls-15" points="454.61 462.01 452.53 462.01 452.21 462.01 451.9 462.01 451.39 462.01 451.07 462.01 450.56 462.01 449.5 462.01 449.04 462.01 448.72 462.01 448.59 462.01"/><path id="Path-6-2" data-name="Path-6" class="cls-15" d="M451.63,471.21l-5.95-.28"/><polyline id="Path-7-2" data-name="Path-7" class="cls-15" points="450.52 484.75 447.95 484.75 446.65 484.75 445.64 484.75 444.63 484.75 443.32 484.75 442.31 484.75"/><path id="Path-8-2" data-name="Path-8" class="cls-15" d="M457.24,493.33l-2.09,1.76"/><path id="Path-9-2" data-name="Path-9" class="cls-15" d="M472.39,505.21l-4.71,3.39"/><path id="Path-10-2" data-name="Path-10" class="cls-15" d="M465.72,469.89c5.6,0,3.27-.54,7.13.83"/><path id="Path-11-2" data-name="Path-11" class="cls-15" d="M472.91,487.2v-3.67"/><polyline id="Path-12-2" data-name="Path-12" class="cls-15" points="483.6 487.6 485.44 487.6 485.95 487.6 486.47 487.6 486.98 487.6 487.49 487.6 488 487.6 488.32 487.6 488.63 487.6 488.94 487.6 489.08 487.6 489.22 487.6 489.36 487.6 489.5 487.6"/><path id="Path-13-2" data-name="Path-13" class="cls-15" d="M489.36,481.39c.1-1.58.19-3.15.28-4.73"/><path id="Path-14-2" data-name="Path-14" class="cls-15" d="M487.66,463.25c1.77-2.91.39-1.71,5-2.28"/><path id="Path-15-2" data-name="Path-15" class="cls-15" d="M473.52,454.31c0-3.72-.57-1.66,4.18-4.86"/><path id="Path-16-2" data-name="Path-16" class="cls-15" d="M506.73,463.1l1.37-2.75"/><polyline id="Path-17-2" data-name="Path-17" class="cls-15" points="502.13 480.13 503.84 480.13 504.15 480.13 504.46 480.13 504.6 480.13 504.92 480.13 505.06 480.13 505.37 480.13 505.5 480.13 505.63 480.13 505.77 480.13 505.91 480.13 506.05 480.13"/><path id="Path-18-2" data-name="Path-18" class="cls-15" d="M499,494.6l1.08,6.5"/><path id="Path-19-2" data-name="Path-19" class="cls-15" d="M488.1,500.94l-2,2.68"/><path id="Path-20-2" data-name="Path-20" class="cls-15" d="M481.82,509.28c-.57,1.57-1.15,3.14-1.72,4.7"/><path id="Path-21-2" data-name="Path-21" class="cls-15" d="M502,510.47h-5"/><polyline id="Path-22-2" data-name="Path-22" class="cls-15" points="518.12 486.18 516.48 486.18 516.16 486.18 515.41 486.18 515.27 486.18 514.75 486.18 514.44 486.18 514.3 486.18"/><polygon id="Path-23" class="cls-16" points="510.28 470.62 515.71 456.34 526.5 452.16 535.63 443.04 526.5 445.16 519.74 449.41 527.99 436.64 535.63 428.3 526.5 430.45 519.74 436.64 515.71 449.41 515.71 436.64 519.74 425.35 527.99 416.48 519.74 416.48 515.71 425.35 512.73 436.64 512.73 452.16 504.81 479.01 510.28 470.62"/><polygon id="Path-23-2" data-name="Path-23" class="cls-16" points="458.43 470.62 450.38 456.34 434.42 452.16 420.9 443.04 434.42 445.16 444.43 449.41 432.21 436.64 420.9 428.3 434.42 430.45 444.43 436.64 450.38 449.41 450.38 436.64 444.43 425.35 432.21 416.48 444.43 416.48 450.38 425.35 454.81 436.64 454.81 452.16 466.53 479.01 458.43 470.62"/><polygon id="Path-23-3" data-name="Path-23" class="cls-16" points="448.09 472.81 442.14 462.27 430.36 459.18 420.37 452.45 430.36 454.02 437.75 457.15 428.72 447.73 420.37 441.57 430.36 443.15 437.75 447.73 442.14 457.15 442.14 447.73 437.75 439.38 428.72 432.83 437.75 432.83 442.14 439.38 445.41 447.73 445.41 459.18 454.06 479.01 448.09 472.81"/><g id="Group-5"><polygon id="Path-23-4" data-name="Path-23" class="cls-17" points="752.95 500.21 740.71 486.9 716.42 483 695.85 474.49 716.42 476.47 731.65 480.43 713.05 468.53 695.85 460.75 716.42 462.75 731.65 468.53 740.71 480.43 740.71 468.53 731.65 457.99 713.05 449.72 731.65 449.72 740.71 457.99 747.43 468.53 747.43 483 765.26 508.03 752.95 500.21"/><polygon id="Path-23-5" data-name="Path-23" class="cls-17" points="725.44 473.63 707.75 469.36 692.26 479.16 674.62 483.23 686.58 473.86 697.61 468.95 677.99 469.21 662.65 472.07 674.63 462.72 687.25 459.28 702.12 464.11 691.75 454.44 678.07 450.72 661.61 453.93 670.87 444.01 682.58 445.89 695.1 450.85 707.7 462.6 738.38 473.42 725.44 473.63"/><polygon id="Path-23-6" data-name="Path-23" class="cls-17" points="701.75 490.43 684.06 486.16 668.57 495.96 650.93 500.03 662.89 490.66 673.92 485.75 654.3 486.01 638.96 488.87 650.94 479.52 663.55 476.08 678.43 480.91 668.06 471.24 654.38 467.52 637.92 470.73 647.17 460.81 658.89 462.69 671.41 467.65 684.01 479.4 714.69 490.22 701.75 490.43"/><polygon id="Path-23-7" data-name="Path-23" class="cls-17" points="709.66 473.55 691.98 469.27 676.49 479.07 658.85 483.14 670.81 473.77 681.84 468.86 662.21 469.12 646.88 471.98 658.86 462.63 671.47 459.19 686.34 464.02 675.98 454.36 662.29 450.63 645.83 453.85 655.09 443.92 666.8 445.8 679.33 450.76 691.93 462.51 722.61 473.33 709.66 473.55"/><polygon id="Path-23-8" data-name="Path-23" class="cls-17" points="725.78 493.6 708.09 489.33 692.6 499.12 674.96 503.2 686.92 493.82 697.95 488.91 678.33 489.17 662.99 492.04 674.97 482.68 687.58 479.25 702.46 484.07 692.09 474.41 678.41 470.69 661.95 473.9 671.2 463.97 682.92 465.85 695.44 470.82 708.04 482.57 738.72 493.38 725.78 493.6"/><polygon id="Path-23-9" data-name="Path-23" class="cls-17" points="766.64 532.84 751.46 505.92 721.35 498.03 695.85 480.83 721.35 484.83 740.23 492.84 717.17 468.76 695.85 453.03 721.35 457.08 740.23 468.76 751.46 492.84 751.46 468.76 740.23 447.45 717.17 430.72 740.23 430.72 751.46 447.45 759.8 468.76 759.8 498.03 781.91 548.67 766.64 532.84"/><polygon id="Path-23-10" data-name="Path-23" class="cls-17" points="737.12 468.15 724.88 452.3 700.59 447.65 680.02 437.53 700.59 439.88 715.82 444.6 697.22 430.43 680.02 421.16 700.59 423.55 715.82 430.43 724.88 444.6 724.88 430.43 715.82 417.88 697.22 408.03 715.82 408.03 724.88 417.88 731.6 430.43 731.6 447.65 749.43 477.47 737.12 468.15"/><polygon id="Path-23-11" data-name="Path-23" class="cls-17" points="781.47 442.84 773.72 461.48 781.76 480.15 783.17 500.2 774.97 485.46 771.5 472.52 768.38 494.07 768.86 511.38 760.69 496.62 759.11 482.2 766.99 466.74 754.59 476.42 748.14 490.77 748.8 509.37 739.53 497.5 743.62 484.99 751.24 472.13 766.3 460.36 783.48 428.61 781.47 442.84"/><polygon id="Path-23-12" data-name="Path-23" class="cls-17" points="707.46 468.17 699.7 486.81 707.75 505.48 709.15 525.53 700.96 510.79 697.49 497.85 694.37 519.4 694.84 536.71 686.67 521.95 685.09 507.53 692.97 492.07 680.58 501.75 674.12 516.11 674.78 534.7 665.51 522.83 669.61 510.32 677.22 497.46 692.29 485.69 709.47 453.94 707.46 468.17"/><polygon id="Path-23-13" data-name="Path-23" class="cls-17" points="664.32 453.39 656.56 472.03 664.61 490.71 666.01 510.75 657.82 496.01 654.35 483.08 651.23 504.63 651.7 521.93 643.53 507.18 641.95 492.76 649.83 477.29 637.43 486.98 630.98 501.33 631.64 519.93 622.37 508.06 626.47 495.55 634.08 482.68 649.14 470.91 666.32 439.17 664.32 453.39"/><polygon id="Path-23-14" data-name="Path-23" class="cls-17" points="767.57 537.19 734.41 523.87 689.29 538 646.3 540.61 683.29 526.25 712.98 520.11 670.24 514.87 633.68 515.84 670.7 501.52 702.04 498.66 728.47 512.22 717.54 490.77 692.37 479.67 652.97 480.98 684.77 464.77 707.86 471.78 729.04 484.9 742.33 510.98 795.81 540.56 767.57 537.19"/><polygon id="Path-23-15" data-name="Path-23" class="cls-17" points="772.32 490.75 739.16 477.43 694.04 491.56 651.05 494.17 688.04 479.81 717.72 473.67 674.99 468.43 638.43 469.39 675.45 455.08 706.79 452.22 733.22 465.78 722.29 444.33 697.12 433.23 657.72 434.54 689.52 418.33 712.61 425.34 733.79 438.46 747.08 464.54 800.56 494.12 772.32 490.75"/><polygon id="Path-23-16" data-name="Path-23" class="cls-17" points="664.02 454.18 711.9 462.24 769.58 430.51 827.04 414.66 780.39 444.35 741.72 461.04 800.67 455.65 849.83 443.82 803.13 473.45 761.45 486.29 722.62 475.96 742.35 501.21 778.91 508.64 831.84 495.55 792.62 526.18 759.81 523.56 728.17 512.29 704.19 481.6 625.1 457.86 664.02 454.18"/><polygon id="Path-23-17" data-name="Path-23" class="cls-17" points="664.02 454.18 711.9 462.24 769.58 430.51 827.04 414.66 780.39 444.35 741.72 461.04 800.67 455.65 849.83 443.82 803.13 473.45 761.45 486.29 722.62 475.96 742.35 501.21 778.91 508.64 831.84 495.55 792.62 526.18 759.81 523.56 728.17 512.29 704.19 481.6 625.1 457.86 664.02 454.18"/><polygon id="Path-23-18" data-name="Path-23" class="cls-17" points="829.19 462.01 824.51 489.53 842.24 525.91 851.01 560.92 834.41 531.19 825.11 507.16 827.98 542.23 834.51 572.05 817.94 542.29 810.83 516.79 816.75 494.76 802.47 504.4 798.18 525.32 805.41 557.45 788.26 532.01 789.83 512.93 796.26 495.2 813.62 483.49 827.22 438.83 829.19 462.01"/><polygon id="Path-23-19" data-name="Path-23" class="cls-17" points="829.19 462.01 824.51 489.53 842.24 525.91 851.01 560.92 834.41 531.19 825.11 507.16 827.98 542.23 834.51 572.05 817.94 542.29 810.83 516.79 816.75 494.76 802.47 504.4 798.18 525.32 805.41 557.45 788.26 532.01 789.83 512.93 796.26 495.2 813.62 483.49 827.22 438.83 829.19 462.01"/><polygon id="Path-23-20" data-name="Path-23" class="cls-17" points="829.19 462.01 824.51 489.53 842.24 525.91 851.01 560.92 834.41 531.19 825.11 507.16 827.98 542.23 834.51 572.05 817.94 542.29 810.83 516.79 816.75 494.76 802.47 504.4 798.18 525.32 805.41 557.45 788.26 532.01 789.83 512.93 796.26 495.2 813.62 483.49 827.22 438.83 829.19 462.01"/><polygon id="Path-23-21" data-name="Path-23" class="cls-17" points="745.1 476.59 740.43 504.11 758.15 540.49 766.92 575.5 750.32 545.77 741.02 521.74 743.9 556.81 750.43 586.63 733.86 556.87 726.74 531.37 732.67 509.35 718.38 518.98 714.1 539.9 721.33 572.03 704.17 546.59 705.74 527.51 712.18 509.78 729.54 498.07 743.13 453.42 745.1 476.59"/><polygon id="Path-23-22" data-name="Path-23" class="cls-17" points="684.41 470.26 679.74 497.78 697.46 534.15 706.23 569.17 689.63 539.44 680.33 515.4 683.21 550.48 689.74 580.3 673.17 550.54 666.05 525.04 671.98 503.01 657.69 512.65 653.41 533.57 660.64 565.7 643.48 540.26 645.05 521.17 651.49 503.45 668.85 491.74 682.45 447.08 684.41 470.26"/><polygon id="Path-23-23" data-name="Path-23" class="cls-17" points="714.11 463.42 706.35 482.06 714.4 500.73 715.8 520.78 707.61 506.04 704.14 493.1 701.02 514.65 701.49 531.96 693.32 517.2 691.74 502.79 699.62 487.32 687.23 497 680.77 511.36 681.43 529.95 672.16 518.09 676.26 505.57 683.87 492.71 698.94 480.94 716.12 449.19 714.11 463.42"/><polygon id="Path-23-24" data-name="Path-23" class="cls-17" points="808.63 484.53 800.88 503.17 808.92 521.84 810.33 541.89 802.13 527.15 798.66 514.21 795.54 535.76 796.02 553.07 787.85 538.31 786.27 523.89 794.14 508.43 781.75 518.11 775.3 532.47 775.96 551.06 766.69 539.19 770.78 526.68 778.4 513.82 793.46 502.05 810.64 470.3 808.63 484.53"/><polygon id="Path-23-25" data-name="Path-23" class="cls-17" points="786.6 504.86 793.2 482.77 783.29 466.36 780.22 446.12 789.96 458.41 794.63 470.54 796.15 447.11 794.27 429.38 803.99 441.7 806.79 456.04 799.81 474.89 811.98 460.39 817.56 443.21 815.38 424.2 826.02 433.13 822.75 447.56 815.83 463.62 801.04 481.25 785.65 520.3 786.6 504.86"/><polygon id="Path-23-26" data-name="Path-23" class="cls-17" points="725.53 471.33 717.78 489.98 725.83 508.65 727.23 528.7 719.03 513.96 715.56 501.02 712.44 522.57 712.92 539.88 704.75 525.12 703.17 510.7 711.04 495.24 698.65 504.92 692.2 519.27 692.86 537.87 683.59 526 687.68 513.49 695.3 500.63 710.36 488.86 727.54 457.11 725.53 471.33"/><polygon id="Path-23-27" data-name="Path-23" class="cls-17" points="702.1 457.08 694.35 475.73 702.39 494.4 703.8 514.45 695.6 499.71 692.13 486.77 689.01 508.32 689.49 525.63 681.32 510.87 679.74 496.45 687.61 480.99 675.22 490.67 668.77 505.02 669.43 523.62 660.15 511.75 664.25 499.24 671.87 486.38 686.93 474.61 704.11 442.86 702.1 457.08"/><polygon id="Path-23-28" data-name="Path-23" class="cls-17" points="742.16 478.45 748.26 459.2 738.62 441.3 735.48 421.45 744.92 435.42 749.51 448.01 750.74 426.26 748.76 409.06 758.18 423.06 761.01 437.28 754.51 453.37 766.01 442.65 771.19 427.79 768.91 409.32 779.19 420.33 776.2 433.15 769.73 446.63 755.75 459.67 741.4 492.79 742.16 478.45"/><polygon id="Path-23-29" data-name="Path-23" class="cls-17" points="776.94 489.79 794.5 499.76 814.01 494.05 834.08 495.1 818.45 501.44 805.18 503.31 826.2 509.03 843.43 510.67 827.79 516.98 813.28 516.78 798.9 507.08 807 520.56 820.46 528.72 839 530.33 826.08 538.09 814.17 532.5 802.33 523.37 792.48 506.99 763.06 486.06 776.94 489.79"/><polygon id="Path-23-30" data-name="Path-23" class="cls-17" points="770.82 470.95 790.36 476.03 807.74 465.47 827.39 461.29 813.94 471.45 801.61 476.69 823.38 476.78 840.46 473.9 826.98 484.05 812.92 487.62 796.51 481.97 807.82 492.89 822.93 497.29 841.26 494.04 830.8 504.88 817.84 502.56 804.04 496.81 790.29 483.53 756.46 470.94 770.82 470.95"/><polygon id="Path-23-31" data-name="Path-23" class="cls-17" points="808.39 449.7 800.63 468.34 808.68 487.01 810.08 507.06 801.89 492.32 798.42 479.38 795.3 500.93 795.77 518.24 787.6 503.48 786.02 489.06 793.9 473.6 781.51 483.28 775.05 497.63 775.72 516.23 766.44 504.36 770.54 491.85 778.15 478.99 793.22 467.22 810.39 435.47 808.39 449.7"/><polygon id="Path-23-32" data-name="Path-23" class="cls-17" points="795.72 422.25 787.97 440.9 796.01 459.57 797.42 479.62 789.22 464.88 785.75 451.94 782.63 473.49 783.11 490.8 774.94 476.04 773.36 461.62 781.23 446.16 768.84 455.84 762.39 470.19 763.05 488.79 753.77 476.92 757.87 464.41 765.49 451.55 780.55 439.78 797.73 408.03 795.72 422.25"/><polygon id="Path-23-33" data-name="Path-23" class="cls-17" points="768.22 425.98 754.37 452.34 763.05 476.38 762.05 503.27 752.56 484.57 749.55 467.6 741.87 497.21 739.95 520.53 730.51 501.8 730.42 482.55 743.97 460.46 724.84 475.41 713.48 495.78 711.64 520.83 700.19 506.17 707.9 488.64 720.7 470.11 743.95 451.94 773.22 406.45 768.22 425.98"/><polygon id="Path-23-34" data-name="Path-23" class="cls-17" points="758.78 471.33 751.03 489.98 759.07 508.65 760.48 528.7 752.28 513.96 748.81 501.02 745.69 522.57 746.16 539.88 738 525.12 736.42 510.7 744.29 495.24 731.9 504.92 725.45 519.27 726.11 537.87 716.83 526 720.93 513.49 728.54 500.63 743.61 488.86 760.79 457.11 758.78 471.33"/><polygon id="Path-23-35" data-name="Path-23" class="cls-17" points="785.28 464.83 787.62 482.11 803.97 507.22 815.11 530.61 800.57 509.88 791.11 493.51 798.99 516.37 807.96 536.2 793.43 515.46 784.91 498.36 784.25 484.74 778.06 489.58 779.43 502.64 789.2 524.02 775.12 506.01 772.57 493.87 772.97 483.06 780.5 477.18 780.04 449.72 785.28 464.83"/><polygon id="Path-23-36" data-name="Path-23" class="cls-17" points="835.32 453.8 824.09 478.11 833.54 501.55 834.21 527.13 824.34 508.74 820.54 492.38 815.21 520.15 814.83 542.27 804.99 523.85 803.76 505.49 814.97 485.24 798.18 498.35 788.9 517.1 788.69 540.87 777.24 526.21 783.32 509.96 794.04 493.05 814.44 477.11 838.77 435.47 835.32 453.8"/><g id="Group-2-2" data-name="Group-2"><g id="Group-2-3" data-name="Group"><path id="Path-3-3" data-name="Path" class="cls-11" d="M717.54,670.87c-13.81,30.76-2.5,6,0,6.84,6.65,2.23,6.91,22.77,5.13.72-.22-2.75,6.54,9.83,6.14,8.45-7.57-26.16-6.14-40.48-6.14-83.22,0-21.28-.79-81.3-1.36-78l7.5-7.94,9.5,7.94,11.27-7.94,9.18,7.94,2,77.46v83.74l3.56-8.45,4,8.45,2.13-9.17,4.76,9.17-3.4-12.46q-5.24-2.52-5.7-3.55c-3.85-8.65-1.35-17.86-1.77-25.6-.38-7.3-1.6-35.78-1.6-87.39,0-6.21-.05-14.21,0-22.32a85.86,85.86,0,0,1,1.6-11.32l4-13.4,9.19-14,17.35,14L777.5,454.65,756.36,444h-30l-25,10.67-20.63,56.19,20.63-14,10.25,14q5.64,11.61,5.84,17c1.1,29.4,2.74,80.79,2,136.4C719.45,668.06,718.79,670.27,717.54,670.87Z"/><path id="Path-2-4" data-name="Path-2" class="cls-18" d="M740.29,444q-.22-13.1,0-21.91t0-102.33q-1.39-17.69,2.1-22.32c1.75-2.32,2.18-4,5.74-6.67,7.46-5.65,20.79-1,26.07,4.06q5.28,5.08,19.85,12.95-25.65-2.88-28,1.46c-1.41,2.57-16.3,5-17.32,5q-1,0-2.52,7.61V444h-5.9Z"/><ellipse id="Oval-3" data-name="Oval" class="cls-19" cx="759.97" cy="299.85" rx="7.12" ry="6.86"/><ellipse id="Oval-2-4" data-name="Oval-2" class="cls-20" cx="757.33" cy="297.73" rx="2.9" ry="3.17"/><path id="Path-3-4" data-name="Path-3" class="cls-10" d="M793.7,307.2l-22.38-4.75"/><path id="Path-4-3" data-name="Path-4" class="cls-21" d="M777.73,299.74c2.17,2.07,1.66,2.66,2.2.75"/></g></g><polyline id="Path-5-3" data-name="Path-5" class="cls-21" points="714.26 462.01 712.17 462.01 711.86 462.01 711.55 462.01 711.03 462.01 710.72 462.01 710.2 462.01 709.14 462.01 708.68 462.01 708.37 462.01 708.23 462.01"/><path id="Path-6-3" data-name="Path-6" class="cls-21" d="M711.28,471.21l-6-.28"/><polyline id="Path-7-3" data-name="Path-7" class="cls-21" points="710.17 484.75 707.6 484.75 706.3 484.75 705.28 484.75 704.27 484.75 702.97 484.75 701.96 484.75"/><path id="Path-8-3" data-name="Path-8" class="cls-21" d="M716.88,493.33l-2.08,1.76"/><path id="Path-9-3" data-name="Path-9" class="cls-21" d="M732,505.21l-4.72,3.39"/><path id="Path-10-3" data-name="Path-10" class="cls-21" d="M725.36,469.89c5.6,0,3.27-.54,7.13.83"/><path id="Path-11-3" data-name="Path-11" class="cls-21" d="M732.55,487.2v-3.67"/><polyline id="Path-12-3" data-name="Path-12" class="cls-21" points="743.24 487.6 745.08 487.6 745.6 487.6 746.11 487.6 746.62 487.6 747.14 487.6 747.65 487.6 747.96 487.6 748.27 487.6 748.59 487.6 748.73 487.6 748.87 487.6 749.01 487.6 749.15 487.6"/><path id="Path-13-3" data-name="Path-13" class="cls-21" d="M749,481.39c.09-1.58.18-3.15.28-4.73"/><path id="Path-14-3" data-name="Path-14" class="cls-21" d="M747.3,463.25c1.77-2.91.4-1.71,5-2.28"/><path id="Path-15-3" data-name="Path-15" class="cls-21" d="M733.16,454.31c0-3.72-.56-1.66,4.19-4.86"/><path id="Path-16-3" data-name="Path-16" class="cls-21" d="M766.37,463.1l1.38-2.75"/><polyline id="Path-17-3" data-name="Path-17" class="cls-21" points="761.78 480.13 763.48 480.13 763.79 480.13 764.11 480.13 764.25 480.13 764.56 480.13 764.7 480.13 765.01 480.13 765.15 480.13 765.28 480.13 765.42 480.13 765.55 480.13 765.69 480.13"/><path id="Path-18-3" data-name="Path-18" class="cls-21" d="M758.63,494.6l1.08,6.5"/><path id="Path-19-3" data-name="Path-19" class="cls-21" d="M747.74,500.94l-2,2.68"/><path id="Path-20-3" data-name="Path-20" class="cls-21" d="M741.47,509.28c-.58,1.57-1.15,3.14-1.73,4.7"/><path id="Path-21-3" data-name="Path-21" class="cls-21" d="M761.65,510.47h-5"/><polyline id="Path-22-3" data-name="Path-22" class="cls-21" points="777.76 486.18 776.12 486.18 775.81 486.18 775.06 486.18 774.91 486.18 774.4 486.18 774.09 486.18 773.94 486.18"/><polygon id="Path-23-37" data-name="Path-23" class="cls-17" points="769.92 470.62 775.36 456.34 786.14 452.16 795.28 443.04 786.14 445.16 779.38 449.41 787.64 436.64 795.28 428.3 786.14 430.45 779.38 436.64 775.36 449.41 775.36 436.64 779.38 425.35 787.64 416.48 779.38 416.48 775.36 425.35 772.37 436.64 772.37 452.16 764.46 479.01 769.92 470.62"/><polygon id="Path-23-38" data-name="Path-23" class="cls-17" points="718.08 470.62 710.03 456.34 694.07 452.16 680.55 443.04 694.07 445.16 704.08 449.41 691.85 436.64 680.55 428.3 694.07 430.45 704.08 436.64 710.03 449.41 710.03 436.64 704.08 425.35 691.85 416.48 704.08 416.48 710.03 425.35 714.45 436.64 714.45 452.16 726.17 479.01 718.08 470.62"/><polygon id="Path-23-39" data-name="Path-23" class="cls-17" points="707.73 472.81 701.79 462.27 690 459.18 680.02 452.45 690 454.02 697.39 457.15 688.37 447.73 680.02 441.57 690 443.15 697.39 447.73 701.79 457.15 701.79 447.73 697.39 439.38 688.37 432.83 697.39 432.83 701.79 439.38 705.05 447.73 705.05 459.18 713.71 479.01 707.73 472.81"/></g></g></svg>