<?xml version="1.0" encoding="utf-8"?>
<!-- Generator: Adobe Illustrator 22.0.1, SVG Export Plug-In . SVG Version: 6.00 Build 0)  -->
<svg version="1.1" id="Layer_1" xmlns="http://www.w3.org/2000/svg" xmlns:xlink="http://www.w3.org/1999/xlink" x="0px" y="0px"
	 viewBox="0 0 725 540" style="enable-background:new 0 0 725 540;" xml:space="preserve">
<style type="text/css">
	.st0{fill:none;}
	.st1{fill:#333333;}
	.st2{font-family:'BungeeHairline-Regular';}
	.st3{font-size:30px;}
	.st4{fill:none;stroke:#030303;stroke-width:1.0555;}
	.st5{fill:none;stroke:#121111;stroke-width:1.0555;}
	.st6{fill:none;stroke:#111010;stroke-width:1.0555;}
	.st7{fill:#030303;}
	.st8{fill:none;stroke:#111111;stroke-width:1.0555;}
	.st9{fill:none;stroke:#111010;stroke-width:0.5277;}
	.st10{fill:#D8D9D8;stroke:#070707;stroke-width:0.5277;}
	.st11{fill:none;stroke:#171616;stroke-width:1.0555;}
	.st12{fill:none;stroke:#0D0E0E;stroke-width:1.0555;}
	.st13{fill:#171617;}
	.st14{fill:none;stroke:#0B0B0B;stroke-width:1.0555;}
	.st15{fill:none;stroke:#131212;stroke-width:0.5277;}
	.st16{fill:none;stroke:#101010;stroke-width:0.5277;}
	.st17{fill:#1B1A1A;stroke:#979797;stroke-width:0.5277;}
	.st18{fill:#1B1A1A;}
	.st19{fill:none;stroke:#151313;stroke-width:1.0555;}
	.st20{fill:none;stroke:#121212;stroke-width:1.0555;}
	.st21{fill:#141414;}
	.st22{fill:none;stroke:#979797;stroke-width:0.5277;}
</style>
<rect x="259.7" y="515.6" class="st0" width="251.1" height="31.8"/>
<text transform="matrix(1 0 0 1 259.744 534.454)" class="st1 st2 st3">UX designer</text>
<rect x="8.7" y="515.7" class="st0" width="241.1" height="35.5"/>
<text transform="matrix(1 0 0 1 8.744 534.621)" class="st1 st2 st3">Researcher</text>
<rect x="523.7" y="515.6" class="st0" width="200.1" height="26.8"/>
<text transform="matrix(1 0 0 1 523.7445 534.454)" class="st1 st2 st3">Filmmaker</text>
<g id="Page-1_1_">
	<g id="Group-3_1_" transform="translate(2.000000, 151.000000)">
		<g id="Group-2_3_">
			<g id="Group_3_">
				<path id="Path_5_" class="st4" d="M72.8,318.6c-13.8,30.8-2.5,6,0,6.8c6.6,2.2,6.9,22.8,5.1,0.7c-0.2-2.8,6.5,9.8,6.1,8.5
					c-7.6-26.2-6.1-40.5-6.1-83.2c0-21.3-0.8-81.3-1.4-78l7.5-7.9l9.5,7.9l11.3-7.9l9.2,7.9l2,77.5v83.7l3.6-8.5l4,8.5l2.1-9.2
					l4.8,9.2l-3.4-12.5c-3.5-1.7-5.4-2.9-5.7-3.6c-3.9-8.6-1.4-17.9-1.8-25.6c-0.4-7.3-1.6-35.8-1.6-87.4c0-6.2-0.1-14.2,0-22.3
					c0-1.8,0.5-5.6,1.6-11.3l4-13.4l9.2-14l17.4,14l-17.4-56.2l-21.1-10.7h-30l-25,10.7L36,158.6l20.6-14l10.3,14
					c3.8,7.7,5.7,13.4,5.8,17c1.1,29.4,2.7,80.8,2,136.4C74.7,315.8,74,318,72.8,318.6z"/>
				<path id="Path-2_5_" class="st5" d="M95.5,91.7c-0.2-8.7-0.2-16,0-21.9c0.2-5.9,0.2-40,0-102.3c-0.9-11.8-0.2-19.2,2.1-22.3
					c1.7-2.3,2.2-4,5.7-6.7c7.5-5.7,20.8-1,26.1,4.1c3.5,3.4,10.1,7.7,19.8,13c-17.1-1.9-26.4-1.4-28,1.5c-1.4,2.6-16.3,5-17.3,5
					c-0.7,0-1.5,2.5-2.5,7.6v7.1v11.7v9.1v94.3h-3H95.5z"/>
				<ellipse id="Oval_5_" class="st6" cx="115.2" cy="-52.4" rx="7.1" ry="6.9"/>
				<ellipse id="Oval-2_5_" class="st7" cx="112.6" cy="-54.5" rx="2.9" ry="3.2"/>
				<path id="Path-3_5_" class="st8" d="M148.9-45.1c-7.5-1.6-14.9-3.2-22.4-4.7"/>
				<path id="Path-4_5_" class="st9" d="M133-52.5c2.2,2.1,1.7,2.7,2.2,0.7"/>
			</g>
		</g>
		<polyline id="Path-5_5_" class="st10" points="69.5,109.7 67.4,109.7 67.1,109.7 66.8,109.7 66.3,109.7 65.9,109.7 65.4,109.7 
			64.4,109.7 63.9,109.7 63.6,109.7 63.5,109.7 		"/>
		<path id="Path-6_5_" class="st10" d="M66.5,118.9c-2-0.1-4-0.2-6-0.3"/>
		<polyline id="Path-7_5_" class="st10" points="65.4,132.5 62.8,132.5 61.5,132.5 60.5,132.5 59.5,132.5 58.2,132.5 57.2,132.5 		
			"/>
		<path id="Path-8_5_" class="st10" d="M72.1,141.1c-0.7,0.6-1.4,1.2-2.1,1.8"/>
		<path id="Path-9_5_" class="st10" d="M87.3,152.9c-1.6,1.1-3.1,2.3-4.7,3.4"/>
		<path id="Path-10_5_" class="st10" d="M80.6,117.6c5.6,0,3.3-0.5,7.1,0.8"/>
		<path id="Path-11_5_" class="st10" d="M87.8,134.9c0-1.2,0-2.5,0-3.7"/>
		<polyline id="Path-12_5_" class="st10" points="98.5,135.3 100.3,135.3 100.8,135.3 101.3,135.3 101.9,135.3 102.4,135.3 
			102.9,135.3 103.2,135.3 103.5,135.3 103.8,135.3 104,135.3 104.1,135.3 104.2,135.3 104.4,135.3 		"/>
		<path id="Path-13_5_" class="st10" d="M104.2,129.1c0.1-1.6,0.2-3.1,0.3-4.7"/>
		<path id="Path-14_5_" class="st10" d="M102.5,111c1.8-2.9,0.4-1.7,5-2.3"/>
		<path id="Path-15_5_" class="st10" d="M88.4,102c0-3.7-0.6-1.7,4.2-4.9"/>
		<path id="Path-16_5_" class="st10" d="M121.6,110.8c0.5-0.9,0.9-1.8,1.4-2.7"/>
		<polyline id="Path-17_5_" class="st10" points="117,127.8 118.7,127.8 119,127.8 119.3,127.8 119.5,127.8 119.8,127.8 
			119.9,127.8 120.2,127.8 120.4,127.8 120.5,127.8 120.6,127.8 120.8,127.8 120.9,127.8 		"/>
		<path id="Path-18_5_" class="st10" d="M113.9,142.3c0.4,2.2,0.7,4.3,1.1,6.5"/>
		<path id="Path-19_5_" class="st10" d="M103,148.7c-0.7,0.9-1.3,1.8-2,2.7"/>
		<path id="Path-20_5_" class="st10" d="M96.7,157c-0.6,1.6-1.2,3.1-1.7,4.7"/>
		<path id="Path-21_5_" class="st10" d="M116.9,158.2c-1.7,0-3.3,0-5,0"/>
		<polyline id="Path-22_5_" class="st10" points="133,133.9 131.3,133.9 131,133.9 130.3,133.9 130.1,133.9 129.6,133.9 
			129.3,133.9 129.2,133.9 		"/>
	</g>
	<path id="Path_4_" class="st11" d="M320.7,469.6c-13.8,30.8-2.5,6,0,6.8c6.6,2.2,6.9,22.8,5.1,0.7c-0.2-2.8,6.5,9.8,6.1,8.5
		c-7.6-26.2-6.1-40.5-6.1-83.2c0-21.3-0.8-81.3-1.4-78l7.5-7.9l9.5,7.9l11.3-7.9l9.2,7.9l2,77.5v83.7l3.6-8.5l4,8.5l2.1-9.2l4.8,9.2
		l-3.4-12.5c-3.5-1.7-5.4-2.9-5.7-3.6c-3.9-8.6-1.4-17.9-1.8-25.6c-0.4-7.3-1.6-35.8-1.6-87.4c0-6.2-0.1-14.2,0-22.3
		c0-1.8,0.5-5.6,1.6-11.3l4-13.4l9.2-14l17.4,14l-17.4-56.2l-21.1-10.7h-30l-25,10.7L284,309.6l20.6-14l10.3,14
		c3.8,7.7,5.7,13.4,5.8,17c1.1,29.4,2.7,80.8,2,136.4C322.6,466.8,321.9,469,320.7,469.6z"/>
	<path id="Path-2_4_" class="st12" d="M343.4,242.5c-0.2-61.4-0.2-95,0-100.9c0.2-5.9,0.2-40,0-102.3c-0.9-11.8-0.2-19.2,2.1-22.3
		c1.7-2.3,2.2-4,5.7-6.7c7.5-5.7,20.8-1,26.1,4.1c3.5,3.4,10.1,7.7,19.8,13c-17.1-1.9-26.4-1.4-28,1.5c-1.4,2.6-16.3,5-17.3,5
		c-0.7,0-1.5,2.5-2.5,7.6l-1.5,7.6v11.4v10.2v172h-2.3H343.4z"/>
	<ellipse id="Oval_4_" class="st12" cx="363.1" cy="19.4" rx="7.1" ry="6.9"/>
	<ellipse id="Oval-2_4_" class="st13" cx="360.5" cy="17.3" rx="2.9" ry="3.2"/>
	<path id="Path-3_4_" class="st14" d="M396.8,26.8c-7.5-1.6-14.9-3.2-22.4-4.7"/>
	<path id="Path-4_4_" class="st15" d="M380.9,19.3c2.2,2.1,1.7,2.7,2.2,0.7"/>
	<polyline id="Path-5_4_" class="st16" points="317.4,260.7 315.3,260.7 315,260.7 314.7,260.7 314.2,260.7 313.9,260.7 
		313.4,260.7 312.3,260.7 311.8,260.7 311.5,260.7 311.4,260.7 	"/>
	<path id="Path-6_4_" class="st16" d="M314.4,269.9c-2-0.1-4-0.2-6-0.3"/>
	<polyline id="Path-7_4_" class="st16" points="313.3,283.5 310.8,283.5 309.4,283.5 308.4,283.5 307.4,283.5 306.1,283.5 
		305.1,283.5 	"/>
	<path id="Path-8_4_" class="st16" d="M320,292.1c-0.7,0.6-1.4,1.2-2.1,1.8"/>
	<path id="Path-9_4_" class="st16" d="M335.2,303.9c-1.6,1.1-3.1,2.3-4.7,3.4"/>
	<path id="Path-10_4_" class="st16" d="M328.5,268.6c5.6,0,3.3-0.5,7.1,0.8"/>
	<path id="Path-11_4_" class="st16" d="M335.7,285.9c0-1.2,0-2.5,0-3.7"/>
	<polyline id="Path-12_4_" class="st16" points="346.4,286.3 348.2,286.3 348.7,286.3 349.3,286.3 349.8,286.3 350.3,286.3 
		350.8,286.3 351.1,286.3 351.4,286.3 351.7,286.3 351.9,286.3 352,286.3 352.2,286.3 352.3,286.3 	"/>
	<path id="Path-13_4_" class="st16" d="M352.2,280.1c0.1-1.6,0.2-3.1,0.3-4.7"/>
	<path id="Path-14_4_" class="st16" d="M350.5,262c1.8-2.9,0.4-1.7,5-2.3"/>
	<path id="Path-15_4_" class="st16" d="M336.3,253c0-3.7-0.6-1.7,4.2-4.9"/>
	<path id="Path-16_4_" class="st16" d="M369.5,261.8c0.5-0.9,0.9-1.8,1.4-2.7"/>
	<polyline id="Path-17_4_" class="st16" points="364.9,278.8 366.6,278.8 366.9,278.8 367.3,278.8 367.4,278.8 367.7,278.8 
		367.9,278.8 368.2,278.8 368.3,278.8 368.4,278.8 368.6,278.8 368.7,278.8 368.8,278.8 	"/>
	<path id="Path-18_4_" class="st16" d="M361.8,293.3c0.4,2.2,0.7,4.3,1.1,6.5"/>
	<path id="Path-19_4_" class="st16" d="M350.9,299.7c-0.7,0.9-1.3,1.8-2,2.7"/>
	<path id="Path-20_4_" class="st16" d="M344.6,308c-0.6,1.6-1.2,3.1-1.7,4.7"/>
	<path id="Path-21_4_" class="st16" d="M364.8,309.2c-1.7,0-3.3,0-5,0"/>
	<polyline id="Path-22_4_" class="st16" points="380.9,284.9 379.3,284.9 379,284.9 378.2,284.9 378.1,284.9 377.6,284.9 
		377.2,284.9 377.1,284.9 	"/>
	<polygon id="Path-23_77_" class="st17" points="373.1,269.3 378.5,255.1 389.3,250.9 398.4,241.8 389.3,243.9 382.5,248.1 
		390.8,235.4 398.4,227 389.3,229.2 382.5,235.4 378.5,248.1 378.5,235.4 382.5,224.1 390.8,215.2 382.5,215.2 378.5,224.1 
		375.5,235.4 375.5,250.9 367.6,277.7 	"/>
	<polygon id="Path-23_76_" class="st17" points="321.2,269.3 313.2,255.1 297.2,250.9 283.7,241.8 297.2,243.9 307.2,248.1 
		295,235.4 283.7,227 297.2,229.2 307.2,235.4 313.2,248.1 313.2,235.4 307.2,224.1 295,215.2 307.2,215.2 313.2,224.1 317.6,235.4 
		317.6,250.9 329.3,277.7 	"/>
	<polygon id="Path-23_75_" class="st17" points="310.9,271.5 304.9,261 293.2,257.9 283.2,251.2 293.2,252.7 300.5,255.9 
		291.5,246.4 283.2,240.3 293.2,241.9 300.5,246.4 304.9,255.9 304.9,246.4 300.5,238.1 291.5,231.6 300.5,231.6 304.9,238.1 
		308.2,246.4 308.2,257.9 316.9,277.7 	"/>
	<g id="Group-5_1_" transform="translate(818.000000, 151.000000)">
		<polygon id="Path-23_74_" class="st18" points="-202.3,147.9 -214.5,134.6 -238.8,130.7 -259.4,122.2 -238.8,124.2 -223.6,128.2 
			-242.2,116.3 -259.4,108.5 -238.8,110.5 -223.6,116.3 -214.5,128.2 -214.5,116.3 -223.6,105.7 -242.2,97.4 -223.6,97.4 
			-214.5,105.7 -207.8,116.3 -207.8,130.7 -189.9,155.8 		"/>
		<polygon id="Path-23_73_" class="st18" points="-229.8,121.4 -247.5,117.1 -262.9,126.9 -280.6,131 -268.6,121.6 -257.6,116.7 
			-277.2,116.9 -292.6,119.8 -280.6,110.4 -268,107 -253.1,111.8 -263.4,102.2 -277.1,98.4 -293.6,101.7 -284.3,91.7 -272.6,93.6 
			-260.1,98.6 -247.5,110.3 -216.8,121.1 		"/>
		<polygon id="Path-23_72_" class="st18" points="-253.5,138.2 -271.1,133.9 -286.6,143.7 -304.3,147.8 -292.3,138.4 -281.3,133.5 
			-300.9,133.7 -316.2,136.6 -304.3,127.2 -291.7,123.8 -276.8,128.6 -287.1,119 -300.8,115.2 -317.3,118.5 -308,108.5 
			-296.3,110.4 -283.8,115.4 -271.2,127.1 -240.5,137.9 		"/>
		<polygon id="Path-23_71_" class="st18" points="-245.5,121.3 -263.2,117 -278.7,126.8 -296.4,130.9 -284.4,121.5 -273.4,116.6 
			-293,116.8 -308.3,119.7 -296.3,110.4 -283.7,106.9 -268.9,111.7 -279.2,102.1 -292.9,98.4 -309.4,101.6 -300.1,91.6 -288.4,93.5 
			-275.9,98.5 -263.3,110.2 -232.6,121.1 		"/>
		<polygon id="Path-23_70_" class="st18" points="-229.4,141.3 -247.1,137 -262.6,146.8 -280.2,150.9 -268.3,141.5 -257.3,136.6 
			-276.9,136.9 -292.2,139.8 -280.2,130.4 -267.6,127 -252.7,131.8 -263.1,122.1 -276.8,118.4 -293.3,121.6 -284,111.7 
			-272.3,113.6 -259.8,118.5 -247.2,130.3 -216.5,141.1 		"/>
		<polygon id="Path-23_69_" class="st18" points="-188.6,180.6 -203.7,153.6 -233.9,145.7 -259.4,128.5 -233.9,132.6 -215,140.6 
			-238,116.5 -259.4,100.7 -233.9,104.8 -215,116.5 -203.7,140.6 -203.7,116.5 -215,95.2 -238,78.4 -215,78.4 -203.7,95.2 
			-195.4,116.5 -195.4,145.7 -173.3,196.4 		"/>
		<polygon id="Path-23_68_" class="st18" points="-218.1,115.9 -230.3,100 -254.6,95.4 -275.2,85.2 -254.6,87.6 -239.4,92.3 
			-258,78.1 -275.2,68.9 -254.6,71.3 -239.4,78.1 -230.3,92.3 -230.3,78.1 -239.4,65.6 -258,55.8 -239.4,55.8 -230.3,65.6 
			-223.6,78.1 -223.6,95.4 -205.8,125.2 		"/>
		<polygon id="Path-23_67_" class="st18" points="-173.7,90.6 -181.5,109.2 -173.4,127.9 -172,147.9 -180.2,133.2 -183.7,120.2 
			-186.8,141.8 -186.3,159.1 -194.5,144.3 -196.1,129.9 -188.2,114.5 -200.6,124.1 -207.1,138.5 -206.4,157.1 -215.7,145.2 
			-211.6,132.7 -204,119.8 -188.9,108.1 -171.7,76.3 		"/>
		<polygon id="Path-23_66_" class="st18" points="-247.7,115.9 -255.5,134.5 -247.5,153.2 -246,173.2 -254.2,158.5 -257.7,145.6 
			-260.8,167.1 -260.4,184.4 -268.5,169.7 -270.1,155.3 -262.2,139.8 -274.6,149.5 -281.1,163.8 -280.4,182.4 -289.7,170.6 
			-285.6,158 -278,145.2 -262.9,133.4 -245.7,101.7 		"/>
		<polygon id="Path-23_65_" class="st18" points="-290.9,101.1 -298.6,119.8 -290.6,138.4 -289.2,158.5 -297.4,143.7 -300.9,130.8 
			-304,152.3 -303.5,169.7 -311.7,154.9 -313.3,140.5 -305.4,125 -317.8,134.7 -324.2,149.1 -323.6,167.6 -332.8,155.8 
			-328.7,143.3 -321.1,130.4 -306.1,118.6 -288.9,86.9 		"/>
		<polygon id="Path-23_64_" class="st18" points="-187.6,184.9 -220.8,171.6 -265.9,185.7 -308.9,188.3 -271.9,174 -242.2,167.8 
			-285,162.6 -321.5,163.6 -284.5,149.2 -253.2,146.4 -226.7,159.9 -237.7,138.5 -262.8,127.4 -302.2,128.7 -270.4,112.5 
			-247.3,119.5 -226.2,132.6 -212.9,158.7 -159.4,188.3 		"/>
		<polygon id="Path-23_63_" class="st18" points="-182.9,138.5 -216,125.2 -261.2,139.3 -304.2,141.9 -267.2,127.5 -237.5,121.4 
			-280.2,116.2 -316.8,117.1 -279.8,102.8 -248.4,99.9 -222,113.5 -232.9,92 -258.1,81 -297.5,82.3 -265.7,66 -242.6,73.1 
			-221.4,86.2 -208.1,112.3 -154.6,141.8 		"/>
		<polygon id="Path-23_62_" class="st18" points="-291.2,101.9 -243.3,110 -185.6,78.2 -128.2,62.4 -174.8,92.1 -213.5,108.8 
			-154.5,103.4 -105.4,91.5 -152.1,121.2 -193.8,134 -232.6,123.7 -212.9,148.9 -176.3,156.4 -123.4,143.3 -162.6,173.9 
			-195.4,171.3 -227,160 -251,129.3 -330.1,105.6 		"/>
		<polygon id="Path-23_61_" class="st18" points="-291.2,101.9 -243.3,110 -185.6,78.2 -128.2,62.4 -174.8,92.1 -213.5,108.8 
			-154.5,103.4 -105.4,91.5 -152.1,121.2 -193.8,134 -232.6,123.7 -212.9,148.9 -176.3,156.4 -123.4,143.3 -162.6,173.9 
			-195.4,171.3 -227,160 -251,129.3 -330.1,105.6 		"/>
		<polygon id="Path-23_60_" class="st18" points="-126,109.7 -130.7,137.3 -113,173.6 -104.2,208.6 -120.8,178.9 -130.1,154.9 
			-127.2,189.9 -120.7,219.8 -137.3,190 -144.4,164.5 -138.5,142.5 -152.7,152.1 -157,173 -149.8,205.2 -166.9,179.7 -165.4,160.6 
			-158.9,142.9 -141.6,131.2 -128,86.6 		"/>
		<polygon id="Path-23_59_" class="st18" points="-126,109.7 -130.7,137.3 -113,173.6 -104.2,208.6 -120.8,178.9 -130.1,154.9 
			-127.2,189.9 -120.7,219.8 -137.3,190 -144.4,164.5 -138.5,142.5 -152.7,152.1 -157,173 -149.8,205.2 -166.9,179.7 -165.4,160.6 
			-158.9,142.9 -141.6,131.2 -128,86.6 		"/>
		<polygon id="Path-23_58_" class="st18" points="-126,109.7 -130.7,137.3 -113,173.6 -104.2,208.6 -120.8,178.9 -130.1,154.9 
			-127.2,189.9 -120.7,219.8 -137.3,190 -144.4,164.5 -138.5,142.5 -152.7,152.1 -157,173 -149.8,205.2 -166.9,179.7 -165.4,160.6 
			-158.9,142.9 -141.6,131.2 -128,86.6 		"/>
		<polygon id="Path-23_57_" class="st18" points="-210.1,124.3 -214.8,151.8 -197.1,188.2 -188.3,223.2 -204.9,193.5 -214.2,169.5 
			-211.3,204.5 -204.8,234.4 -221.3,204.6 -228.5,179.1 -222.5,157.1 -236.8,166.7 -241.1,187.6 -233.9,219.8 -251,194.3 
			-249.5,175.2 -243,157.5 -225.7,145.8 -212.1,101.1 		"/>
		<polygon id="Path-23_56_" class="st18" points="-270.8,118 -275.5,145.5 -257.7,181.9 -249,216.9 -265.6,187.2 -274.9,163.1 
			-272,198.2 -265.5,228 -282,198.3 -289.2,172.8 -283.2,150.7 -297.5,160.4 -301.8,181.3 -294.6,213.4 -311.7,188 -310.2,168.9 
			-303.7,151.2 -286.4,139.5 -272.8,94.8 		"/>
		<polygon id="Path-23_55_" class="st18" points="-241.1,111.1 -248.9,129.8 -240.8,148.5 -239.4,168.5 -247.6,153.8 -251.1,140.8 
			-254.2,162.4 -253.7,179.7 -261.9,164.9 -263.5,150.5 -255.6,135 -268,144.7 -274.4,159.1 -273.8,177.7 -283,165.8 -278.9,153.3 
			-271.3,140.4 -256.3,128.7 -239.1,96.9 		"/>
		<polygon id="Path-23_54_" class="st18" points="-146.6,132.2 -154.3,150.9 -146.3,169.6 -144.9,189.6 -153.1,174.9 -156.5,161.9 
			-159.7,183.5 -159.2,200.8 -167.4,186 -168.9,171.6 -161.1,156.2 -173.5,165.8 -179.9,180.2 -179.2,198.8 -188.5,186.9 
			-184.4,174.4 -176.8,161.5 -161.7,149.8 -144.6,118 		"/>
		<polygon id="Path-23_53_" class="st18" points="-168.6,152.6 -162,130.5 -171.9,114.1 -175,93.8 -165.2,106.1 -160.6,118.3 
			-159.1,94.8 -160.9,77.1 -151.2,89.4 -148.4,103.8 -155.4,122.6 -143.2,108.1 -137.6,90.9 -139.8,71.9 -129.2,80.9 -132.5,95.3 
			-139.4,111.3 -154.2,129 -169.6,168 		"/>
		<polygon id="Path-23_52_" class="st18" points="-229.7,119.1 -237.4,137.7 -229.4,156.4 -228,176.4 -236.2,161.7 -239.6,148.7 
			-242.8,170.3 -242.3,187.6 -250.5,172.8 -252,158.4 -244.2,143 -256.6,152.6 -263,167 -262.3,185.6 -271.6,173.7 -267.5,161.2 
			-259.9,148.3 -244.8,136.6 -227.7,104.8 		"/>
		<polygon id="Path-23_51_" class="st18" points="-253.1,104.8 -260.9,123.4 -252.8,142.1 -251.4,162.2 -259.6,147.4 -263.1,134.5 
			-266.2,156 -265.7,173.3 -273.9,158.6 -275.5,144.2 -267.6,128.7 -280,138.4 -286.4,152.7 -285.8,171.3 -295,159.5 -291,147 
			-283.3,134.1 -268.3,122.3 -251.1,90.6 		"/>
		<polygon id="Path-23_50_" class="st18" points="-213,126.2 -206.9,106.9 -216.6,89 -219.7,69.2 -210.3,83.1 -205.7,95.7 
			-204.5,74 -206.4,56.8 -197,70.8 -194.2,85 -200.7,101.1 -189.2,90.4 -184,75.5 -186.3,57 -176,68.1 -179,80.9 -185.5,94.4 
			-199.5,107.4 -213.8,140.5 		"/>
		<polygon id="Path-23_49_" class="st18" points="-178.3,137.5 -160.7,147.5 -141.2,141.8 -121.1,142.8 -136.8,149.2 -150,151 
			-129,156.7 -111.8,158.4 -127.4,164.7 -141.9,164.5 -156.3,154.8 -148.2,168.3 -134.7,176.4 -116.2,178 -129.1,185.8 -141,180.2 
			-152.9,171.1 -162.7,154.7 -192.1,133.8 		"/>
		<polygon id="Path-23_48_" class="st18" points="-184.4,118.7 -164.8,123.8 -147.5,113.2 -127.8,109 -141.3,119.2 -153.6,124.4 
			-131.8,124.5 -114.7,121.6 -128.2,131.8 -142.3,135.3 -158.7,129.7 -147.4,140.6 -132.3,145 -113.9,141.8 -124.4,152.6 
			-137.4,150.3 -151.2,144.5 -164.9,131.3 -198.7,118.7 		"/>
		<polygon id="Path-23_47_" class="st18" points="-146.8,97.4 -154.6,116.1 -146.5,134.7 -145.1,154.8 -153.3,140 -156.8,127.1 
			-159.9,148.7 -159.4,166 -167.6,151.2 -169.2,136.8 -161.3,121.3 -173.7,131 -180.2,145.4 -179.5,164 -188.8,152.1 -184.7,139.6 
			-177.1,126.7 -162,114.9 -144.8,83.2 		"/>
		<polygon id="Path-23_46_" class="st18" points="-159.5,70 -167.2,88.6 -159.2,107.3 -157.8,127.3 -166,112.6 -169.5,99.7 
			-172.6,121.2 -172.1,138.5 -180.3,123.8 -181.8,109.3 -174,93.9 -186.4,103.6 -192.8,117.9 -192.2,136.5 -201.4,124.6 
			-197.3,112.1 -189.7,99.3 -174.7,87.5 -157.5,55.8 		"/>
		<polygon id="Path-23_45_" class="st18" points="-187,73.7 -200.8,100.1 -192.2,124.1 -193.2,151 -202.6,132.3 -205.7,115.3 
			-213.3,144.9 -215.3,168.3 -224.7,149.5 -224.8,130.3 -211.2,108.2 -230.4,123.1 -241.7,143.5 -243.6,168.5 -255,153.9 
			-247.3,136.4 -234.5,117.8 -211.2,99.7 -182,54.2 		"/>
		<polygon id="Path-23_44_" class="st18" points="-196.4,119.1 -204.2,137.7 -196.1,156.4 -194.7,176.4 -202.9,161.7 -206.4,148.7 
			-209.5,170.3 -209,187.6 -217.2,172.8 -218.8,158.4 -210.9,143 -223.3,152.6 -229.8,167 -229.1,185.6 -238.4,173.7 -234.3,161.2 
			-226.7,148.3 -211.6,136.6 -194.4,104.8 		"/>
		<polygon id="Path-23_43_" class="st18" points="-169.9,112.6 -167.6,129.8 -151.2,154.9 -140.1,178.3 -154.6,157.6 -164.1,141.2 
			-156.2,164.1 -147.2,183.9 -161.8,163.2 -170.3,146.1 -171,132.5 -177.1,137.3 -175.8,150.4 -166,171.7 -180.1,153.7 
			-182.6,141.6 -182.2,130.8 -174.7,124.9 -175.2,97.4 		"/>
		<polygon id="Path-23_42_" class="st18" points="-119.9,101.5 -131.1,125.8 -121.7,149.3 -121,174.8 -130.9,156.5 -134.7,140.1 
			-140,167.9 -140.4,190 -150.2,171.6 -151.4,153.2 -140.2,133 -157,146.1 -166.3,164.8 -166.5,188.6 -178,173.9 -171.9,157.7 
			-161.2,140.8 -140.8,124.8 -116.4,83.2 		"/>
		<g id="Group-2_2_" transform="translate(142.000000, 0.000000)">
			<g id="Group_2_">
				<path id="Path_3_" class="st12" d="M-379.7,318.6c-13.8,30.8-2.5,6,0,6.8c6.6,2.2,6.9,22.8,5.1,0.7c-0.2-2.8,6.5,9.8,6.1,8.5
					c-7.6-26.2-6.1-40.5-6.1-83.2c0-21.3-0.8-81.3-1.4-78l7.5-7.9l9.5,7.9l11.3-7.9l9.2,7.9l2,77.5v83.7l3.6-8.5l4,8.5l2.1-9.2
					l4.8,9.2l-3.4-12.5c-3.5-1.7-5.4-2.9-5.7-3.6c-3.9-8.6-1.4-17.9-1.8-25.6c-0.4-7.3-1.6-35.8-1.6-87.4c0-6.2-0.1-14.2,0-22.3
					c0-1.8,0.5-5.6,1.6-11.3l4-13.4l9.2-14l17.4,14l-17.4-56.2l-21.1-10.7h-30l-25,10.7l-20.6,56.2l20.6-14l10.3,14
					c3.8,7.7,5.7,13.4,5.8,17c1.1,29.4,2.7,80.8,2,136.4C-377.8,315.8-378.4,318-379.7,318.6z"/>
				<path id="Path-2_3_" class="st19" d="M-356.9,91.7c-0.2-8.7-0.2-16,0-21.9c0.2-5.9,0.2-40,0-102.3c-0.9-11.8-0.2-19.2,2.1-22.3
					c1.7-2.3,2.2-4,5.7-6.7c7.5-5.7,20.8-1,26.1,4.1c3.5,3.4,10.1,7.7,19.8,13c-17.1-1.9-26.4-1.4-28,1.5c-1.4,2.6-16.3,5-17.3,5
					c-0.7,0-1.5,2.5-2.5,7.6v7.1v11.7v9.1v94.3h-3H-356.9z"/>
				<ellipse id="Oval_3_" class="st20" cx="-337.2" cy="-52.4" rx="7.1" ry="6.9"/>
				<ellipse id="Oval-2_3_" class="st21" cx="-339.9" cy="-54.5" rx="2.9" ry="3.2"/>
				<path id="Path-3_3_" class="st11" d="M-303.5-45.1c-7.5-1.6-14.9-3.2-22.4-4.7"/>
				<path id="Path-4_3_" class="st22" d="M-319.5-52.5c2.2,2.1,1.7,2.7,2.2,0.7"/>
			</g>
		</g>
		<polyline id="Path-5_3_" class="st22" points="-240.9,109.7 -243,109.7 -243.3,109.7 -243.7,109.7 -244.2,109.7 -244.5,109.7 
			-245,109.7 -246.1,109.7 -246.5,109.7 -246.8,109.7 -247,109.7 		"/>
		<path id="Path-6_3_" class="st22" d="M-243.9,118.9c-2-0.1-4-0.2-6-0.3"/>
		<polyline id="Path-7_3_" class="st22" points="-245,132.5 -247.6,132.5 -248.9,132.5 -249.9,132.5 -250.9,132.5 -252.2,132.5 
			-253.2,132.5 		"/>
		<path id="Path-8_3_" class="st22" d="M-238.3,141.1c-0.7,0.6-1.4,1.2-2.1,1.8"/>
		<path id="Path-9_3_" class="st22" d="M-223.2,152.9c-1.6,1.1-3.1,2.3-4.7,3.4"/>
		<path id="Path-10_3_" class="st22" d="M-229.8,117.6c5.6,0,3.3-0.5,7.1,0.8"/>
		<path id="Path-11_3_" class="st22" d="M-222.7,134.9c0-1.2,0-2.5,0-3.7"/>
		<polyline id="Path-12_3_" class="st22" points="-212,135.3 -210.1,135.3 -209.6,135.3 -209.1,135.3 -208.6,135.3 -208.1,135.3 
			-207.6,135.3 -207.2,135.3 -206.9,135.3 -206.6,135.3 -206.5,135.3 -206.3,135.3 -206.2,135.3 -206.1,135.3 		"/>
		<path id="Path-13_3_" class="st22" d="M-206.2,129.1c0.1-1.6,0.2-3.1,0.3-4.7"/>
		<path id="Path-14_3_" class="st22" d="M-207.9,111c1.8-2.9,0.4-1.7,5-2.3"/>
		<path id="Path-15_3_" class="st22" d="M-222,102c0-3.7-0.6-1.7,4.2-4.9"/>
		<path id="Path-16_3_" class="st22" d="M-188.8,110.8c0.5-0.9,0.9-1.8,1.4-2.7"/>
		<polyline id="Path-17_3_" class="st22" points="-193.4,127.8 -191.7,127.8 -191.4,127.8 -191.1,127.8 -191,127.8 -190.6,127.8 
			-190.5,127.8 -190.2,127.8 -190.1,127.8 -189.9,127.8 -189.8,127.8 -189.7,127.8 -189.5,127.8 		"/>
		<path id="Path-18_3_" class="st22" d="M-196.6,142.3c0.4,2.2,0.7,4.3,1.1,6.5"/>
		<path id="Path-19_3_" class="st22" d="M-207.5,148.7c-0.7,0.9-1.3,1.8-2,2.7"/>
		<path id="Path-20_3_" class="st22" d="M-213.7,157c-0.6,1.6-1.2,3.1-1.7,4.7"/>
		<path id="Path-21_3_" class="st22" d="M-193.6,158.2c-1.7,0-3.3,0-5,0"/>
		<polyline id="Path-22_3_" class="st22" points="-177.4,133.9 -179.1,133.9 -179.4,133.9 -180.1,133.9 -180.3,133.9 -180.8,133.9 
			-181.1,133.9 -181.3,133.9 		"/>
		<polygon id="Path-23_41_" class="st18" points="-185.3,118.3 -179.8,104.1 -169.1,99.9 -159.9,90.8 -169.1,92.9 -175.8,97.1 
			-167.6,84.4 -159.9,76 -169.1,78.2 -175.8,84.4 -179.8,97.1 -179.8,84.4 -175.8,73.1 -167.6,64.2 -175.8,64.2 -179.8,73.1 
			-182.8,84.4 -182.8,99.9 -190.7,126.7 		"/>
		<polygon id="Path-23_40_" class="st18" points="-237.1,118.3 -245.2,104.1 -261.1,99.9 -274.7,90.8 -261.1,92.9 -251.1,97.1 
			-263.4,84.4 -274.7,76 -261.1,78.2 -251.1,84.4 -245.2,97.1 -245.2,84.4 -251.1,73.1 -263.4,64.2 -251.1,64.2 -245.2,73.1 
			-240.8,84.4 -240.8,99.9 -229,126.7 		"/>
		<polygon id="Path-23_39_" class="st18" points="-247.5,120.5 -253.4,110 -265.2,106.9 -275.2,100.2 -265.2,101.7 -257.8,104.9 
			-266.8,95.4 -275.2,89.3 -265.2,90.9 -257.8,95.4 -253.4,104.9 -253.4,95.4 -257.8,87.1 -266.8,80.6 -257.8,80.6 -253.4,87.1 
			-250.2,95.4 -250.2,106.9 -241.5,126.7 		"/>
	</g>
</g>
</svg>
